<svg version="1.1" id="Layer_1" xmlns="http://www.w3.org/2000/svg" xmlns:xlink="http://www.w3.org/1999/xlink" x="0px" y="0px"
	 width="100%" viewBox="0 0 238 238" enable-background="new 0 0 238 238" xml:space="preserve">
<path fill="#FB024B" opacity="1.000000" stroke="none" 
	d="
M239.000000,146.000000 
	C239.000000,154.020905 239.000000,162.041809 238.549408,170.531342 
	C232.399490,171.332916 226.700165,171.665848 220.977097,171.612366 
	C219.636627,167.316345 218.060165,163.471130 217.070648,159.480377 
	C215.903717,154.774063 212.958160,152.559769 208.316971,151.580231 
	C208.441299,146.114944 208.654251,141.057251 209.247131,136.019409 
	C211.290314,136.720963 212.919754,137.505142 214.622559,138.066986 
	C222.737442,140.744431 230.872269,143.361465 239.000000,146.000000 
z"/>
<path fill="#F80147" opacity="1.000000" stroke="none" 
	d="
M221.000839,171.998779 
	C226.700165,171.665848 232.399490,171.332916 238.549408,171.000000 
	C239.000000,181.687561 239.000000,192.375122 238.638397,203.674133 
	C236.201248,208.893509 234.125702,213.501450 231.875381,217.813385 
	C225.043976,212.119232 222.093704,205.294785 222.912415,196.620697 
	C223.391846,191.541367 223.166489,186.371033 222.905685,181.259628 
	C222.814819,179.478958 221.666183,177.752258 221.000366,175.600708 
	C221.000351,174.133286 221.000595,173.066025 221.000839,171.998779 
z"/>
<path fill="#9000F0" opacity="1.000000" stroke="none" 
	d="
M1.000000,45.000000 
	C1.000000,44.555553 1.000000,44.111111 1.349018,43.190178 
	C1.852461,41.474003 2.006887,40.234314 2.605970,38.995506 
	C9.823665,38.997440 16.656990,39.557560 23.352055,38.835567 
	C29.517792,38.170658 36.150043,37.272243 41.468319,34.414104 
	C48.806343,30.470512 55.837852,25.299934 61.618458,19.319010 
	C66.400070,14.371698 71.447823,8.730979 72.000000,1.000000 
	C74.370560,1.000000 76.741112,1.000000 79.550102,1.386928 
	C78.168762,5.172228 76.652374,8.781813 74.464790,11.924124 
	C70.174561,18.086735 65.510506,23.989103 60.823059,30.289398 
	C57.565342,32.396999 54.513115,34.262905 51.399727,36.020466 
	C46.621548,38.717838 41.801296,41.340691 36.540600,43.995529 
	C24.388199,44.330593 12.694099,44.665298 1.000000,45.000000 
z"/>
<path fill="#FDBD06" opacity="1.000000" stroke="none" 
	d="
M133.000000,239.000000 
	C131.933212,239.000000 130.866425,239.000000 129.378464,238.633972 
	C126.337074,234.097549 124.358414,229.291046 120.974335,225.878036 
	C111.469536,216.291870 98.769417,215.728424 86.516678,216.376221 
	C70.427208,217.226837 55.888172,224.415527 41.087543,230.126465 
	C37.475639,231.520126 34.321335,234.099716 30.589005,236.072662 
	C27.776993,234.693985 25.332615,233.376694 23.204269,231.906830 
	C32.680950,227.502960 41.841599,223.251648 51.418343,218.993011 
	C55.731655,218.215759 59.656784,217.564255 63.520809,216.653519 
	C74.775459,214.000885 85.709984,211.167480 97.763496,212.663147 
	C115.055382,214.808823 126.684441,222.948135 133.000000,239.000000 
z"/>
<path fill="#7700FD" opacity="1.000000" stroke="none" 
	d="
M44.000000,1.000000 
	C47.362103,1.000000 50.724201,1.000000 54.522316,1.362870 
	C51.125591,6.821114 47.719097,12.322122 43.353035,16.909946 
	C37.802742,22.742146 31.899754,28.374313 23.093582,29.382933 
	C20.951591,29.628265 19.023251,31.738970 16.556435,32.992840 
	C11.798878,32.659561 7.481561,32.325409 3.211713,31.634777 
	C5.134221,27.837894 7.009260,24.397488 9.285645,21.038801 
	C19.112923,23.365040 26.824043,20.043533 33.662468,13.788566 
	C37.757870,10.042582 42.957924,7.207488 44.000000,1.000000 
z"/>
<path fill="#8900F6" opacity="1.000000" stroke="none" 
	d="
M3.164245,31.991257 
	C7.481561,32.325409 11.798878,32.659561 16.963865,33.076851 
	C25.061686,34.859852 31.920748,34.623657 38.083397,29.658981 
	C40.128441,28.011477 42.806023,27.150354 44.855755,25.507233 
	C53.270901,18.761414 61.759777,12.020080 65.000000,1.000000 
	C67.041664,1.000000 69.083336,1.000000 71.562500,1.000000 
	C71.447823,8.730979 66.400070,14.371698 61.618458,19.319010 
	C55.837852,25.299934 48.806343,30.470512 41.468319,34.414104 
	C36.150043,37.272243 29.517792,38.170658 23.352055,38.835567 
	C16.656990,39.557560 9.823665,38.997440 2.536436,38.596783 
	C2.402910,36.128536 2.783577,34.059898 3.164245,31.991257 
z"/>
<path fill="#FDC305" opacity="1.000000" stroke="none" 
	d="
M30.956642,236.134048 
	C34.321335,234.099716 37.475639,231.520126 41.087543,230.126465 
	C55.888172,224.415527 70.427208,217.226837 86.516678,216.376221 
	C98.769417,215.728424 111.469536,216.291870 120.974335,225.878036 
	C124.358414,229.291046 126.337074,234.097549 128.978638,238.633972 
	C127.933327,239.000000 126.866661,239.000000 125.379395,238.629074 
	C123.242180,231.754379 119.486961,226.831024 113.054062,224.677887 
	C108.071068,223.010040 102.852692,221.250732 97.691719,221.094727 
	C89.861305,220.858032 81.600784,220.661606 74.231361,222.842133 
	C64.323479,225.773758 55.053898,230.906845 45.604694,235.298019 
	C44.144932,235.976410 43.188961,237.738876 42.000000,239.000000 
	C41.555553,239.000000 41.111111,239.000000 40.165482,238.644348 
	C36.761749,237.570465 33.859196,236.852249 30.956642,236.134048 
z"/>
<path fill="#FEC903" opacity="1.000000" stroke="none" 
	d="
M42.458069,239.000000 
	C43.188961,237.738876 44.144932,235.976410 45.604694,235.298019 
	C55.053898,230.906845 64.323479,225.773758 74.231361,222.842133 
	C81.600784,220.661606 89.861305,220.858032 97.691719,221.094727 
	C102.852692,221.250732 108.071068,223.010040 113.054062,224.677887 
	C119.486961,226.831024 123.242180,231.754379 124.979401,238.629074 
	C122.958336,239.000000 120.916664,239.000000 118.416634,238.636047 
	C116.596779,236.048553 115.747658,233.071991 113.782860,231.735153 
	C106.290771,226.637527 97.692360,224.152313 88.766724,225.733047 
	C79.670982,227.343933 70.732948,230.030243 61.884892,232.760956 
	C58.483059,233.810852 54.036896,234.221420 53.000000,239.000000 
	C49.638714,239.000000 46.277424,239.000000 42.458069,239.000000 
z"/>
<path fill="#FDB609" opacity="1.000000" stroke="none" 
	d="
M133.399994,239.000000 
	C126.684441,222.948135 115.055382,214.808823 97.763496,212.663147 
	C85.709984,211.167480 74.775459,214.000885 63.520809,216.653519 
	C59.656784,217.564255 55.731655,218.215759 51.494141,218.653122 
	C52.476479,217.193817 53.631962,215.691544 55.154484,215.013824 
	C59.031712,213.287933 63.167995,212.133759 67.007721,210.338272 
	C68.875488,209.464890 70.311661,207.668503 72.402252,206.313599 
	C84.241150,206.948730 95.621002,207.560226 107.129898,208.481415 
	C108.669731,209.601990 109.989967,210.698242 111.505470,211.179245 
	C125.360069,215.576843 132.112747,226.420792 137.000000,239.000000 
	C135.933334,239.000000 134.866653,239.000000 133.399994,239.000000 
z"/>
<path fill="#FFFFFF" opacity="1.000000" stroke="none" 
	d="
M30.589008,236.072662 
	C33.859196,236.852249 36.761749,237.570465 39.832150,238.644348 
	C27.070621,239.000000 14.141245,239.000000 1.000000,239.000000 
	C1.000000,225.313171 1.000000,211.625244 1.306691,197.560760 
	C1.794377,197.788742 1.975372,198.393311 2.086587,199.397476 
	C2.301233,201.546661 2.585660,203.296219 2.921952,205.416046 
	C3.605550,207.538895 4.237283,209.291473 4.926755,211.393417 
	C5.945621,213.509796 6.906746,215.276810 7.926380,217.393829 
	C9.637483,219.867752 11.290075,221.991638 13.065125,224.405518 
	C14.418626,225.814194 15.649670,226.932877 17.027096,228.362030 
	C19.078398,229.801453 20.983316,230.930435 22.888235,232.059402 
	C25.332615,233.376694 27.776993,234.693985 30.589008,236.072662 
z"/>
<path fill="#FD0153" opacity="1.000000" stroke="none" 
	d="
M239.000000,145.531738 
	C230.872269,143.361465 222.737442,140.744431 214.622559,138.066986 
	C212.919754,137.505142 211.290314,136.720963 209.115234,135.596588 
	C208.688370,133.100723 208.773376,131.047501 209.267212,128.971985 
	C219.286118,125.824432 229.143158,126.413643 239.000000,127.000000 
	C239.000000,133.021149 239.000000,139.042297 239.000000,145.531738 
z"/>
<path fill="#FB02B4" opacity="1.000000" stroke="none" 
	d="
M239.000000,36.000000 
	C239.000000,36.750000 239.000000,37.500000 238.599030,38.631313 
	C234.521866,40.043526 230.827820,41.015209 227.172913,42.116798 
	C217.470001,45.041283 207.783981,48.021835 197.810883,50.808510 
	C195.998657,48.809525 194.466797,46.982124 193.021164,44.798058 
	C194.455460,43.357323 195.638596,41.804958 197.177567,41.262939 
	C210.026138,36.737740 222.940216,32.398460 236.003235,28.340282 
	C237.114624,31.118315 238.057312,33.559158 239.000000,36.000000 
z"/>
<path fill="#FFFFFF" opacity="1.000000" stroke="none" 
	d="
M3.211713,31.634777 
	C2.783577,34.059898 2.402910,36.128536 2.091777,38.595901 
	C2.006887,40.234314 1.852461,41.474003 1.349018,42.856842 
	C1.000000,29.077991 1.000000,15.155985 1.000000,1.000000 
	C13.019883,1.000000 25.041283,1.000000 37.374344,1.364541 
	C25.105858,3.675292 15.772942,10.485544 8.884298,20.957083 
	C7.009260,24.397488 5.134221,27.837894 3.211713,31.634777 
z"/>
<path fill="#FFFFFF" opacity="1.000000" stroke="none" 
	d="
M232.050171,218.109406 
	C234.125702,213.501450 236.201248,208.893509 238.638397,204.142792 
	C239.000000,215.597244 239.000000,227.194504 239.000000,239.000000 
	C226.313202,239.000000 213.625259,239.000000 200.582550,238.667267 
	C201.605011,238.168243 202.982239,238.001953 204.763031,237.877930 
	C207.111832,237.225479 209.057053,236.530746 211.330231,235.820847 
	C213.221756,234.835785 214.785324,233.865891 216.719727,232.922211 
	C218.741776,231.671783 220.392960,230.395126 222.377441,229.063934 
	C223.843536,228.023239 224.976318,227.037079 226.419128,225.918335 
	C228.502808,223.226944 230.276489,220.668182 232.050171,218.109406 
z"/>
<path fill="#FFFFFF" opacity="1.000000" stroke="none" 
	d="
M239.000000,35.531342 
	C238.057312,33.559158 237.114624,31.118315 235.965332,27.992416 
	C234.117172,24.538879 232.475632,21.770397 230.805542,18.669518 
	C226.808792,14.760748 222.840591,11.184373 218.590820,7.350446 
	C213.206161,5.061929 208.103088,3.030964 203.000000,1.000000 
	C214.925568,1.000000 226.851120,1.000000 239.000000,1.000000 
	C239.000000,12.353253 239.000000,23.707968 239.000000,35.531342 
z"/>
<path fill="#FD019D" opacity="1.000000" stroke="none" 
	d="
M239.000000,48.000000 
	C239.000000,51.692909 239.000000,55.385818 238.590210,59.567139 
	C227.177307,62.037720 216.174194,64.019890 205.089081,65.636482 
	C203.774734,62.181759 202.542389,59.092617 201.700684,55.971626 
	C214.394211,53.293186 226.697098,50.646595 239.000000,48.000000 
z"/>
<path fill="#8000F9" opacity="1.000000" stroke="none" 
	d="
M64.545891,1.000000 
	C61.759777,12.020080 53.270901,18.761414 44.855755,25.507233 
	C42.806023,27.150354 40.128441,28.011477 38.083397,29.658981 
	C31.920748,34.623657 25.061686,34.859852 17.404106,33.075977 
	C19.023251,31.738970 20.951591,29.628265 23.093582,29.382933 
	C31.899754,28.374313 37.802742,22.742146 43.353035,16.909946 
	C47.719097,12.322122 51.125591,6.821114 54.979164,1.362870 
	C58.030594,1.000000 61.061188,1.000000 64.545891,1.000000 
z"/>
<path fill="#C400E4" opacity="1.000000" stroke="none" 
	d="
M122.000000,1.000000 
	C125.692909,1.000000 129.385818,1.000000 133.518951,1.370319 
	C133.091904,3.638085 132.349182,5.605361 131.332352,7.418941 
	C128.959656,11.650728 126.455193,15.808636 123.853088,20.305416 
	C121.794914,24.278208 119.887749,27.942051 117.526001,31.693405 
	C113.049339,31.722935 109.027260,31.664953 105.031219,31.264175 
	C105.969376,29.190702 106.485252,27.007380 107.859383,25.804480 
	C115.474892,19.137928 117.881454,9.597520 122.000000,1.000000 
z"/>
<path fill="#CC00E1" opacity="1.000000" stroke="none" 
	d="
M124.004105,19.996466 
	C126.455193,15.808636 128.959656,11.650728 131.332352,7.418941 
	C132.349182,5.605361 133.091904,3.638085 133.979584,1.370319 
	C140.021149,1.000000 146.042297,1.000000 152.526062,1.392137 
	C151.321716,6.524404 149.654755,11.264533 147.641083,16.067879 
	C144.197983,17.752979 141.101608,19.374865 137.863556,20.688290 
	C137.051514,17.792500 135.655380,17.202301 133.033600,18.063911 
	C130.126068,19.019423 127.022377,19.377977 124.004105,19.996466 
z"/>
<path fill="#B801E2" opacity="1.000000" stroke="none" 
	d="
M121.536819,1.000000 
	C117.881454,9.597520 115.474892,19.137928 107.859383,25.804480 
	C106.485252,27.007380 105.969376,29.190702 104.576813,31.351387 
	C100.397141,31.798004 96.697929,31.814615 93.077591,31.506756 
	C93.934898,30.124992 94.560547,28.898233 95.515793,28.037075 
	C103.564339,20.781218 105.864403,10.687200 109.000000,1.000000 
	C113.024544,1.000000 117.049088,1.000000 121.536819,1.000000 
z"/>
<path fill="#F401D0" opacity="1.000000" stroke="none" 
	d="
M202.600006,1.000000 
	C208.103088,3.030964 213.206161,5.061929 218.226837,7.527905 
	C210.429993,12.641994 202.715546,17.321072 194.580017,22.000301 
	C191.438873,22.333590 188.718826,22.666727 185.976959,22.618750 
	C185.636948,20.491579 185.318771,18.745523 185.285110,16.827971 
	C190.046417,11.437650 194.523209,6.218826 199.000000,1.000002 
	C200.066666,1.000000 201.133347,1.000000 202.600006,1.000000 
z"/>
<path fill="#6F01FE" opacity="1.000000" stroke="none" 
	d="
M9.285645,21.038801 
	C15.772942,10.485544 25.105858,3.675292 37.843002,1.364541 
	C39.714359,1.000000 41.428715,1.000000 43.571537,1.000000 
	C42.957924,7.207488 37.757870,10.042582 33.662468,13.788566 
	C26.824043,20.043533 19.112923,23.365040 9.285645,21.038801 
z"/>
<path fill="#FE015B" opacity="1.000000" stroke="none" 
	d="
M239.000000,126.536819 
	C229.143158,126.413643 219.286118,125.824432 209.136520,128.529816 
	C208.682739,124.738251 208.768494,121.366570 209.291443,117.995628 
	C211.847549,117.731613 213.969727,117.490387 216.084824,117.197853 
	C223.724503,116.141243 231.361801,115.067368 239.000000,114.000000 
	C239.000000,118.024544 239.000000,122.049088 239.000000,126.536819 
z"/>
<path fill="#AD00E6" opacity="1.000000" stroke="none" 
	d="
M108.539368,1.000000 
	C105.864403,10.687200 103.564339,20.781218 95.515793,28.037075 
	C94.560547,28.898233 93.934898,30.124992 92.627457,31.574514 
	C89.065460,31.971626 86.032471,31.976503 83.064697,31.635941 
	C84.280937,29.500031 85.095657,27.316944 86.644173,25.990522 
	C91.917137,21.473824 94.141533,15.612847 95.153343,8.670073 
	C95.869972,5.888991 96.434990,3.444496 97.000000,1.000000 
	C100.692909,1.000000 104.385818,1.000000 108.539368,1.000000 
z"/>
<path fill="#DF00D7" opacity="1.000000" stroke="none" 
	d="
M147.987793,16.004662 
	C149.654755,11.264533 151.321716,6.524404 152.994324,1.392137 
	C158.022095,1.000000 163.044189,1.000000 168.462921,1.369169 
	C167.239090,7.491335 165.618622,13.244332 163.644272,19.065121 
	C158.526382,21.087921 153.762375,23.042931 148.997345,24.569046 
	C148.660141,21.428318 148.323975,18.716490 147.987793,16.004662 
z"/>
<path fill="#FD0077" opacity="1.000000" stroke="none" 
	d="
M239.000000,84.000000 
	C239.000000,87.692909 239.000000,91.385818 238.535736,95.539261 
	C228.330688,97.011925 218.589890,98.024055 208.717285,98.657188 
	C208.510574,94.862984 208.435669,91.447777 208.789886,88.026367 
	C219.146011,86.680115 229.072998,85.340057 239.000000,84.000000 
z"/>
<path fill="#FDD002" opacity="1.000000" stroke="none" 
	d="
M53.454109,239.000000 
	C54.036896,234.221420 58.483059,233.810852 61.884892,232.760956 
	C70.732948,230.030243 79.670982,227.343933 88.766724,225.733047 
	C97.692360,224.152313 106.290771,226.637527 113.782860,231.735153 
	C115.747658,233.071991 116.596779,236.048553 117.979134,238.636047 
	C116.285645,239.000000 114.571281,239.000000 112.357933,238.661407 
	C109.674927,233.600983 105.537781,231.742538 100.777031,231.099869 
	C89.459785,229.572113 78.507942,231.438828 67.885506,235.298950 
	C66.050949,235.965607 64.618294,237.738235 62.999996,239.000000 
	C59.969406,239.000000 56.938812,239.000000 53.454109,239.000000 
z"/>
<path fill="#FDD600" opacity="1.000000" stroke="none" 
	d="
M63.468655,239.000000 
	C64.618294,237.738235 66.050949,235.965607 67.885506,235.298950 
	C78.507942,231.438828 89.459785,229.572113 100.777031,231.099869 
	C105.537781,231.742538 109.674927,233.600983 111.929474,238.661407 
	C95.979103,239.000000 79.958214,239.000000 63.468655,239.000000 
z"/>
<path fill="#FC02AA" opacity="1.000000" stroke="none" 
	d="
M239.000000,47.550018 
	C226.697098,50.646595 214.394211,53.293186 201.491943,55.708557 
	C199.958817,53.978249 199.025024,52.479164 198.091248,50.980087 
	C207.783981,48.021835 217.470001,45.041283 227.172913,42.116798 
	C230.827820,41.015209 234.521866,40.043526 238.599030,39.006313 
	C239.000000,41.700012 239.000000,44.400028 239.000000,47.550018 
z"/>
<path fill="#A300D6" opacity="1.000000" stroke="none" 
	d="
M1.000000,61.000000 
	C1.000000,58.629444 1.000000,56.258884 1.448655,53.444130 
	C13.081372,52.986832 24.265434,52.967258 35.449497,52.966801 
	C37.385586,52.966721 39.321678,53.047565 41.166107,53.431164 
	C39.732552,56.182137 38.390656,58.592979 36.585709,61.000809 
	C24.415106,60.998528 12.707553,60.999264 1.000000,61.000000 
z"/>
<path fill="#FC018C" opacity="1.000000" stroke="none" 
	d="
M239.000000,68.000000 
	C239.000000,70.700630 239.000000,73.401253 238.607620,76.637566 
	C228.190781,78.778053 218.166336,80.382858 208.081223,81.583870 
	C207.831619,79.084213 207.642685,76.988342 207.690445,74.519745 
	C208.684799,73.541374 209.376663,72.526665 210.210190,72.392609 
	C219.794373,70.851143 229.400040,69.443359 239.000000,68.000000 
z"/>
<path fill="#FE1348" opacity="1.000000" stroke="none" 
	d="
M1.000000,138.000000 
	C1.000000,135.299377 1.000000,132.598740 1.467010,129.449707 
	C9.085959,128.915237 16.396328,129.942978 23.403625,126.030670 
	C26.516178,126.373550 29.225451,126.690582 32.019760,127.450760 
	C32.042915,130.595749 31.981035,133.297577 31.496029,136.001221 
	C21.048601,136.668686 11.024301,137.334351 1.000000,138.000000 
z"/>
<path fill="#FE0164" opacity="1.000000" stroke="none" 
	d="
M239.000000,113.550018 
	C231.361801,115.067368 223.724503,116.141243 216.084824,117.197853 
	C213.969727,117.490387 211.847549,117.731613 209.162231,117.560783 
	C208.680237,114.415169 208.764633,111.705147 209.239746,108.929077 
	C219.420319,107.575356 229.210159,106.287682 239.000000,105.000000 
	C239.000000,107.700012 239.000000,110.400032 239.000000,113.550018 
z"/>
<path fill="#FD016D" opacity="1.000000" stroke="none" 
	d="
M239.000000,104.550026 
	C229.210159,106.287682 219.420319,107.575356 209.111298,108.491211 
	C208.677765,105.091652 208.763428,102.063919 208.849091,99.036186 
	C218.589890,98.024055 228.330688,97.011925 238.535736,95.999893 
	C239.000000,98.700012 239.000000,101.400032 239.000000,104.550026 
z"/>
<path fill="#FC0296" opacity="1.000000" stroke="none" 
	d="
M239.000000,67.555832 
	C229.400040,69.443359 219.794373,70.851143 210.210190,72.392609 
	C209.376663,72.526665 208.684799,73.541374 207.543610,74.142967 
	C206.497070,71.426628 205.834076,68.714340 205.171082,66.002060 
	C216.174194,64.019890 227.177307,62.037720 238.590210,60.027775 
	C239.000000,62.370556 239.000000,64.741112 239.000000,67.555832 
z"/>
<path fill="#F82937" opacity="1.000000" stroke="none" 
	d="
M204.359451,237.835663 
	C202.982239,238.001953 201.605011,238.168243 200.113892,238.667267 
	C199.555557,239.000000 199.111099,239.000000 198.261108,238.623871 
	C196.874603,235.097839 195.889740,231.949142 194.913422,228.797806 
	C191.937271,219.191422 188.964432,209.584015 186.163483,199.709412 
	C187.894852,198.384766 189.453049,197.327728 191.096924,196.632629 
	C192.173355,200.994446 192.900482,205.082779 194.206924,208.976746 
	C197.450226,218.643646 200.957947,228.221848 204.359451,237.835663 
z"/>
<path fill="#F93433" opacity="1.000000" stroke="none" 
	d="
M185.990311,199.977020 
	C188.964432,209.584015 191.937271,219.191422 194.913422,228.797806 
	C195.889740,231.949142 196.874603,235.097839 197.927780,238.623871 
	C196.285645,239.000000 194.571289,239.000000 192.405273,238.616425 
	C190.865234,234.924866 189.725677,231.632690 188.698441,228.305817 
	C186.051620,219.733673 183.454514,211.146179 181.080765,202.355255 
	C182.879440,201.422806 184.434875,200.699905 185.990311,199.977020 
z"/>
<path fill="#EE01D5" opacity="1.000000" stroke="none" 
	d="
M198.533142,1.000002 
	C194.523209,6.218826 190.046417,11.437650 184.830963,16.828201 
	C181.061935,16.999100 178.031570,16.998268 175.022064,16.632858 
	C175.918472,14.500942 176.760040,12.715750 177.676880,10.970084 
	C179.428604,7.634829 181.223206,4.322089 183.000000,0.999999 
	C188.022095,1.000000 193.044189,1.000000 198.533142,1.000002 
z"/>
<path fill="#E600D8" opacity="1.000000" stroke="none" 
	d="
M182.535355,0.999999 
	C181.223206,4.322089 179.428604,7.634829 177.676880,10.970084 
	C176.760040,12.715750 175.918472,14.500942 174.675629,16.650311 
	C172.871826,17.688688 171.435303,18.345032 169.570374,19.000900 
	C167.427353,18.999393 165.712769,18.998362 163.998169,18.997330 
	C165.618622,13.244332 167.239090,7.491335 168.929779,1.369169 
	C173.356903,1.000000 177.713806,1.000000 182.535355,0.999999 
z"/>
<path fill="#FC7513" opacity="1.000000" stroke="none" 
	d="
M2.156366,198.997864 
	C1.975372,198.393311 1.794377,197.788742 1.306691,197.092102 
	C1.000000,195.933487 1.000000,194.866959 1.417192,193.392548 
	C14.226282,189.655411 26.618179,186.326187 39.268112,183.204681 
	C40.136105,184.555283 40.746063,185.698166 41.020630,187.023468 
	C31.986759,190.133575 23.322584,193.169571 14.574549,195.940857 
	C10.519320,197.225540 6.300836,197.994888 2.156366,198.997864 
z"/>
<path fill="#FD198A" opacity="1.000000" stroke="none" 
	d="
M208.141876,81.987663 
	C218.166336,80.382858 228.190781,78.778053 238.607620,77.086624 
	C239.000000,79.041664 239.000000,81.083336 239.000000,83.562500 
	C229.072998,85.340057 219.146011,86.680115 208.690552,87.603157 
	C208.155350,85.453316 208.148621,83.720490 208.141876,81.987663 
z"/>
<path fill="#F9402F" opacity="1.000000" stroke="none" 
	d="
M180.837555,202.564819 
	C183.454514,211.146179 186.051620,219.733673 188.698441,228.305817 
	C189.725677,231.632690 190.865234,234.924866 191.976807,238.616425 
	C190.285645,239.000000 188.571289,239.000000 186.403961,238.606720 
	C184.853424,234.555176 183.852448,230.864517 182.638046,227.245453 
	C180.153748,219.841980 177.554779,212.476974 175.314453,204.927643 
	C177.363098,204.027725 179.100327,203.296280 180.837555,202.564819 
z"/>
<path fill="#9700F2" opacity="1.000000" stroke="none" 
	d="
M61.001152,29.999168 
	C65.510506,23.989103 70.174561,18.086735 74.464790,11.924124 
	C76.652374,8.781813 78.168762,5.172228 79.994263,1.386928 
	C82.370560,1.000000 84.741112,1.000000 87.534592,1.366115 
	C87.451927,2.928180 87.088165,4.211113 86.416931,5.305462 
	C82.987724,10.896260 79.479141,16.438375 75.654602,22.070740 
	C70.540970,24.762362 65.771065,27.380764 61.001152,29.999168 
z"/>
<path fill="#FA4C2B" opacity="1.000000" stroke="none" 
	d="
M175.003021,205.096130 
	C177.554779,212.476974 180.153748,219.841980 182.638046,227.245453 
	C183.852448,230.864517 184.853424,234.555176 185.975494,238.606720 
	C184.611115,239.000000 183.222214,239.000000 181.347321,238.635666 
	C180.112930,236.260086 179.361694,234.249893 178.616653,232.237427 
	C175.414459,223.587753 172.214081,214.937408 169.378601,206.162598 
	C171.497116,205.723969 173.250061,205.410049 175.003021,205.096130 
z"/>
<path fill="#FEAE0B" opacity="1.000000" stroke="none" 
	d="
M137.399994,239.000000 
	C132.112747,226.420792 125.360069,215.576843 111.505470,211.179245 
	C109.989967,210.698242 108.669731,209.601990 107.588730,208.413040 
	C111.946396,208.082703 115.974266,208.130402 120.083130,208.504517 
	C121.146698,209.894684 121.960472,211.219482 123.138397,211.981110 
	C133.055161,218.393082 137.317810,228.495239 141.000000,239.000000 
	C139.933334,239.000000 138.866653,239.000000 137.399994,239.000000 
z"/>
<path fill="#9D01DD" opacity="1.000000" stroke="none" 
	d="
M41.257767,53.091034 
	C39.321678,53.047565 37.385586,52.966721 35.449497,52.966801 
	C24.265434,52.967258 13.081372,52.986832 1.448655,52.999962 
	C1.000000,52.250000 1.000000,51.500000 1.383943,50.353302 
	C7.139225,49.881512 12.517849,49.955090 17.879995,49.692371 
	C24.088478,49.388184 30.308609,48.987946 36.465149,48.182167 
	C38.089550,47.969559 39.498219,46.108646 41.385147,45.025928 
	C43.242252,45.393600 44.720161,45.739979 46.147343,46.431114 
	C44.483669,48.880920 42.870720,50.985977 41.257767,53.091034 
z"/>
<path fill="#FE243A" opacity="1.000000" stroke="none" 
	d="
M1.000000,151.000000 
	C1.000000,149.285629 1.000000,147.571243 1.431078,145.426453 
	C11.928030,143.664368 21.993902,142.332687 32.214630,141.408264 
	C32.289654,143.543991 32.209820,145.272461 31.701591,147.001968 
	C21.182133,148.335342 11.091066,149.667664 1.000000,151.000000 
z"/>
<path fill="#FD9A11" opacity="1.000000" stroke="none" 
	d="
M151.000000,239.000000 
	C149.285629,239.000000 147.571243,239.000000 145.421249,238.602631 
	C142.411652,232.399002 140.215652,226.382904 137.145554,220.852036 
	C134.633698,216.326859 131.079712,212.380157 128.428940,208.106735 
	C131.246872,208.081696 133.623581,208.126938 136.073883,208.511307 
	C137.136902,210.751266 138.167984,212.631744 139.108612,214.556442 
	C143.087067,222.697144 147.038605,230.850967 151.000000,239.000000 
z"/>
<path fill="#9F00F1" opacity="1.000000" stroke="none" 
	d="
M75.998329,21.997520 
	C79.479141,16.438375 82.987724,10.896260 86.416931,5.305462 
	C87.088165,4.211113 87.451927,2.928180 87.978760,1.366115 
	C90.700012,1.000000 93.400032,1.000000 96.550018,1.000000 
	C96.434990,3.444496 95.869972,5.888991 94.816063,8.738035 
	C92.885330,10.427184 91.466637,11.738936 89.997307,12.991267 
	C85.676384,16.674025 81.335365,20.333200 76.879997,23.749504 
	C76.504631,22.997440 76.251480,22.497478 75.998329,21.997520 
z"/>
<path fill="#9500E3" opacity="1.000000" stroke="none" 
	d="
M41.005951,45.004627 
	C39.498219,46.108646 38.089550,47.969559 36.465149,48.182167 
	C30.308609,48.987946 24.088478,49.388184 17.879995,49.692371 
	C12.517849,49.955090 7.139225,49.881512 1.383943,49.978302 
	C1.000000,48.611111 1.000000,47.222221 1.000000,45.416664 
	C12.694099,44.665298 24.388199,44.330593 36.819111,44.209812 
	C38.705933,44.617367 39.855942,44.810997 41.005951,45.004627 
z"/>
<path fill="#FB6423" opacity="1.000000" stroke="none" 
	d="
M175.000000,239.000000 
	C173.285629,239.000000 171.571243,239.000000 169.427521,238.588776 
	C168.338974,235.467453 167.886185,232.686188 166.981323,230.060745 
	C164.417221,222.621094 161.668182,215.245163 159.316040,207.673096 
	C161.095154,207.389496 162.550201,207.276917 164.030670,207.526367 
	C167.704056,218.258942 171.352020,228.629471 175.000000,239.000000 
z"/>
<path fill="#F93433" opacity="1.000000" stroke="none" 
	d="
M1.000000,162.000000 
	C1.000000,160.285629 1.000000,158.571243 1.463502,156.427322 
	C7.277421,155.415207 12.641742,154.936111 17.974150,154.219528 
	C22.821224,153.568161 27.633602,152.658585 32.607311,152.201965 
	C32.743259,154.024445 32.733173,155.507782 32.335175,157.023438 
	C21.631506,158.703827 11.315753,160.351913 1.000000,162.000000 
z"/>
<path fill="#FE1B41" opacity="1.000000" stroke="none" 
	d="
M32.059776,141.001022 
	C21.993902,142.332687 11.928030,143.664368 1.431078,144.998016 
	C1.000000,142.958328 1.000000,140.916672 1.000000,138.437500 
	C11.024301,137.334351 21.048601,136.668686 31.588707,136.410187 
	C32.089600,138.211899 32.074688,139.606461 32.059776,141.001022 
z"/>
<path fill="#FD6418" opacity="1.000000" stroke="none" 
	d="
M0.999999,189.000000 
	C1.000000,187.285629 1.000000,185.571243 1.441808,183.428558 
	C13.236284,180.667175 24.588953,178.334122 36.145126,176.258728 
	C36.587189,177.339676 36.825741,178.162933 36.694099,179.055450 
	C24.549269,182.416443 12.774633,185.708221 0.999999,189.000000 
z"/>
<path fill="#FC582D" opacity="1.000000" stroke="none" 
	d="
M175.428467,239.000000 
	C171.352020,228.629471 167.704056,218.258942 164.384949,207.436829 
	C166.146896,206.752594 167.579971,206.519958 169.013062,206.287308 
	C172.214081,214.937408 175.414459,223.587753 178.616653,232.237427 
	C179.361694,234.249893 180.112930,236.260086 180.930664,238.635666 
	C179.285645,239.000000 177.571289,239.000000 175.428467,239.000000 
z"/>
<path fill="#FBA908" opacity="1.000000" stroke="none" 
	d="
M127.987724,208.177002 
	C131.079712,212.380157 134.633698,216.326859 137.145554,220.852036 
	C140.215652,226.382904 142.411652,232.399002 144.992813,238.602631 
	C143.933334,239.000000 142.866653,239.000000 141.399994,239.000000 
	C137.317810,228.495239 133.055161,218.393082 123.138397,211.981110 
	C121.960472,211.219482 121.146698,209.894684 120.522903,208.436844 
	C123.250366,208.087509 125.619041,208.132263 127.987724,208.177002 
z"/>
<path fill="#FC6D17" opacity="1.000000" stroke="none" 
	d="
M0.999999,189.399994 
	C12.774633,185.708221 24.549269,182.416443 36.940056,179.268036 
	C38.040825,180.606567 38.525452,181.801773 39.010078,182.996964 
	C26.618179,186.326187 14.226282,189.655411 1.417192,192.992310 
	C1.000000,191.933334 1.000000,190.866653 0.999999,189.399994 
z"/>
<path fill="#FE402A" opacity="1.000000" stroke="none" 
	d="
M1.000000,162.428467 
	C11.315753,160.351913 21.631506,158.703827 32.448669,157.440582 
	C32.969254,159.549225 32.988430,161.273041 32.559570,162.997162 
	C21.741024,164.664978 11.370512,166.332489 0.999999,168.000000 
	C1.000000,166.285645 1.000000,164.571289 1.000000,162.428467 
z"/>
<path fill="#FD5B1C" opacity="1.000000" stroke="none" 
	d="
M35.941620,176.001053 
	C24.588953,178.334122 13.236284,180.667175 1.441808,183.000122 
	C1.000000,181.611115 1.000000,180.222214 1.421788,178.408783 
	C11.281476,176.223770 20.733356,174.532547 30.143106,172.632675 
	C31.660381,172.326340 32.990028,171.090729 34.600090,170.609406 
	C35.176384,172.623108 35.559002,174.312088 35.941620,176.001053 
z"/>
<path fill="#FB701E" opacity="1.000000" stroke="none" 
	d="
M158.991989,207.844147 
	C161.668182,215.245163 164.417221,222.621094 166.981323,230.060745 
	C167.886185,232.686188 168.338974,235.467453 168.999084,238.588776 
	C167.611115,239.000000 166.222214,239.000000 164.391159,238.608337 
	C163.778595,237.410553 163.707611,236.567307 163.422668,235.803925 
	C159.967590,226.547211 156.480988,217.302246 153.426086,207.966217 
	C155.563721,207.866837 157.277847,207.855499 158.991989,207.844147 
z"/>
<path fill="#D90095" opacity="1.000000" stroke="none" 
	d="
M1.000000,92.000000 
	C1.000000,90.933212 1.000000,89.866425 1.397210,88.320038 
	C3.584221,87.571846 5.382615,87.026497 7.162363,87.081757 
	C15.613682,87.344139 24.059921,87.770203 32.529762,88.557770 
	C32.417458,90.650299 32.283352,92.323044 31.721857,93.996346 
	C21.196310,93.331276 11.098155,92.665634 1.000000,92.000000 
z"/>
<path fill="#FD5220" opacity="1.000000" stroke="none" 
	d="
M34.406410,170.284683 
	C32.990028,171.090729 31.660381,172.326340 30.143106,172.632675 
	C20.733356,174.532547 11.281476,176.223770 1.421788,177.992126 
	C1.000000,176.933334 1.000000,175.866653 1.394475,174.375366 
	C12.404988,171.234772 23.021027,168.518814 33.754715,166.109131 
	C34.050381,167.705170 34.228394,168.994919 34.406410,170.284683 
z"/>
<path fill="#FD4923" opacity="1.000000" stroke="none" 
	d="
M33.637066,165.802841 
	C23.021027,168.518814 12.404988,171.234772 1.394475,173.975372 
	C1.000000,172.285645 1.000000,170.571289 0.999999,168.428467 
	C11.370512,166.332489 21.741024,164.664978 32.736904,163.317047 
	C33.453869,164.358688 33.545467,165.080765 33.637066,165.802841 
z"/>
<path fill="#F82937" opacity="1.000000" stroke="none" 
	d="
M32.461277,151.862839 
	C27.633602,152.658585 22.821224,153.568161 17.974150,154.219528 
	C12.641742,154.936111 7.277421,155.415207 1.463502,155.998886 
	C1.000000,154.611115 1.000000,153.222214 1.000000,151.416656 
	C11.091066,149.667664 21.182133,148.335342 31.829422,147.391281 
	C32.410854,149.140656 32.436066,150.501740 32.461277,151.862839 
z"/>
<path fill="#EC0178" opacity="1.000000" stroke="none" 
	d="
M1.000000,107.000000 
	C1.000000,105.611000 1.000000,104.222008 1.466671,102.416718 
	C11.932593,102.667221 21.931845,103.334023 32.020393,104.411148 
	C32.049599,106.213722 31.989511,107.605972 31.482571,108.998520 
	C21.023809,108.332542 11.011905,107.666275 1.000000,107.000000 
z"/>
<path fill="#FD9014" opacity="1.000000" stroke="none" 
	d="
M151.399994,239.000000 
	C147.038605,230.850967 143.087067,222.697144 139.108612,214.556442 
	C138.167984,212.631744 137.136902,210.751266 136.498550,208.443024 
	C138.566422,208.081329 140.283173,208.127045 142.022797,208.531677 
	C142.791183,210.508698 143.576935,212.109695 144.275497,213.747849 
	C147.862671,222.159973 151.427414,230.581665 155.000000,239.000000 
	C153.933334,239.000000 152.866653,239.000000 151.399994,239.000000 
z"/>
<path fill="#B601C2" opacity="1.000000" stroke="none" 
	d="
M1.000000,70.000000 
	C1.000000,68.611000 1.000000,67.222008 1.459987,65.416534 
	C13.193862,64.999519 24.467751,64.998978 35.725334,65.334412 
	C35.205612,67.135193 34.702198,68.599991 33.756966,70.051880 
	C22.543434,70.025970 11.771717,70.012985 1.000000,70.000000 
z"/>
<path fill="#E70182" opacity="1.000000" stroke="none" 
	d="
M31.931095,104.000824 
	C21.931845,103.334023 11.932593,102.667221 1.466671,102.000214 
	C1.000000,100.611107 1.000000,99.222221 1.465529,97.416702 
	C12.002840,97.333778 22.074623,97.667473 32.214027,98.426720 
	C32.164799,100.568459 32.047947,102.284637 31.931095,104.000824 
z"/>
<path fill="#CF09AA" opacity="1.000000" stroke="none" 
	d="
M1.000000,82.000000 
	C1.000000,80.933212 1.000000,79.866425 1.468656,78.400772 
	C12.262300,78.335854 22.587290,78.669800 32.960403,79.404961 
	C32.914299,80.873680 32.820065,81.941177 32.274361,83.007858 
	C21.548594,82.671349 11.274297,82.335678 1.000000,82.000000 
z"/>
<path fill="#FC8617" opacity="1.000000" stroke="none" 
	d="
M155.416656,239.000000 
	C151.427414,230.581665 147.862671,222.159973 144.275497,213.747849 
	C143.576935,212.109695 142.791183,210.508698 142.435547,208.463287 
	C144.216232,208.078918 145.607010,208.121811 147.079926,208.497162 
	C151.441345,218.886414 155.720673,228.943207 160.000000,239.000000 
	C158.611115,239.000000 157.222214,239.000000 155.416656,239.000000 
z"/>
<path fill="#F2016F" opacity="1.000000" stroke="none" 
	d="
M1.000000,107.416672 
	C11.011905,107.666275 21.023809,108.332542 31.571896,109.409805 
	C32.051640,111.216858 31.995203,112.612915 31.514915,114.007950 
	C29.394203,114.013145 27.697342,114.019348 25.599146,113.995804 
	C17.131872,113.310707 9.065936,112.655350 1.000000,112.000000 
	C1.000000,110.611107 1.000000,109.222221 1.000000,107.416672 
z"/>
<path fill="#D409A0" opacity="1.000000" stroke="none" 
	d="
M1.000000,82.428467 
	C11.274297,82.335678 21.548594,82.671349 32.321007,83.377327 
	C32.715408,85.211075 32.611691,86.674530 32.507969,88.137978 
	C24.059921,87.770203 15.613682,87.344139 7.162363,87.081757 
	C5.382615,87.026497 3.584221,87.571846 1.397210,87.920227 
	C1.000000,86.285645 1.000000,84.571281 1.000000,82.428467 
z"/>
<path fill="#FD7F21" opacity="1.000000" stroke="none" 
	d="
M160.399994,239.000000 
	C155.720673,228.943207 151.441345,218.886414 147.503433,208.413025 
	C149.564087,208.015701 151.283325,208.034958 153.002579,208.054230 
	C156.480988,217.302246 159.967590,226.547211 163.422668,235.803925 
	C163.707611,236.567307 163.778595,237.410553 163.974487,238.608337 
	C162.933334,239.000000 161.866653,239.000000 160.399994,239.000000 
z"/>
<path fill="#C105BD" opacity="1.000000" stroke="none" 
	d="
M1.000000,70.399994 
	C11.771717,70.012985 22.543434,70.025970 33.786339,70.414413 
	C33.976658,72.195892 33.695789,73.601913 32.949741,75.005966 
	C21.989708,74.669327 11.494854,74.334663 1.000000,74.000000 
	C1.000000,72.933327 1.000000,71.866661 1.000000,70.399994 
z"/>
<path fill="#AF00C9" opacity="1.000000" stroke="none" 
	d="
M35.741638,64.998436 
	C24.467751,64.998978 13.193862,64.999519 1.459987,65.000031 
	C1.000000,63.933331 1.000000,62.866661 1.000000,61.399994 
	C12.707553,60.999264 24.415106,60.998528 36.572632,61.355076 
	C36.595612,62.807716 36.168625,63.903076 35.741638,64.998436 
z"/>
<path fill="#E0008B" opacity="1.000000" stroke="none" 
	d="
M32.146400,98.001167 
	C22.074623,97.667473 12.002840,97.333778 1.465529,97.000046 
	C1.000000,95.611107 1.000000,94.222221 1.000000,92.416664 
	C11.098155,92.665634 21.196310,93.331276 31.843697,94.386261 
	C32.310753,95.850800 32.228577,96.925980 32.146400,98.001167 
z"/>
<path fill="#FE0164" opacity="1.000000" stroke="none" 
	d="
M1.000000,112.428467 
	C9.065936,112.655350 17.131872,113.310707 25.507721,114.302765 
	C24.544064,115.761871 23.270496,116.884277 21.553852,118.005875 
	C14.407184,118.003380 7.703592,118.001694 1.000000,118.000000 
	C1.000000,116.285645 1.000000,114.571281 1.000000,112.428467 
z"/>
<path fill="#FE015B" opacity="1.000000" stroke="none" 
	d="
M1.000000,118.428467 
	C7.703592,118.001694 14.407184,118.003380 21.606342,118.318939 
	C21.732800,120.087837 21.363688,121.542885 20.528370,122.999031 
	C13.708109,123.333427 7.354054,123.666718 1.000000,124.000000 
	C1.000000,122.285645 1.000000,120.571281 1.000000,118.428467 
z"/>
<path fill="#C807B4" opacity="1.000000" stroke="none" 
	d="
M1.000000,74.399994 
	C11.494854,74.334663 21.989708,74.669327 32.956131,75.410583 
	C33.255890,76.879356 33.084084,77.941551 32.912277,79.003746 
	C22.587290,78.669800 12.262300,78.335854 1.468656,78.000961 
	C1.000000,76.933327 1.000000,75.866661 1.000000,74.399994 
z"/>
<path fill="#FD0153" opacity="1.000000" stroke="none" 
	d="
M1.000000,124.416672 
	C7.354054,123.666718 13.708109,123.333427 20.606655,123.295074 
	C21.767548,124.394951 22.383947,125.199890 23.000345,126.004822 
	C16.396328,129.942978 9.085959,128.915237 1.467010,129.000656 
	C1.000000,127.611107 1.000000,126.222221 1.000000,124.416672 
z"/>
<path fill="#FFFCFD" opacity="1.000000" stroke="none" 
	d="
M32.960407,79.404961 
	C33.084084,77.941551 33.255890,76.879356 33.421310,75.412552 
	C33.695789,73.601913 33.976658,72.195892 34.228149,70.427330 
	C34.702198,68.599991 35.205612,67.135193 35.725334,65.334412 
	C36.168625,63.903076 36.595612,62.807716 37.035683,61.358086 
	C38.390656,58.592979 39.732552,56.182137 41.166107,53.431168 
	C42.870720,50.985977 44.483669,48.880920 46.494022,46.420914 
	C53.992390,40.132915 61.930054,35.835949 71.389206,33.735870 
	C75.523186,33.148239 79.261337,32.564812 82.999489,31.981382 
	C86.032471,31.976503 89.065460,31.971626 92.548576,31.898987 
	C96.697929,31.814615 100.397141,31.798004 104.550766,31.694183 
	C109.027260,31.664953 113.049339,31.722935 117.986664,31.781366 
	C123.591888,31.728521 128.281876,31.675224 133.426712,31.713268 
	C137.590408,31.817783 141.299240,31.830957 145.471237,31.907303 
	C151.955673,32.216358 157.976929,32.462246 164.389557,32.822350 
	C167.187119,33.301708 169.593323,33.666859 172.292938,34.249161 
	C176.690002,36.048328 180.793701,37.630341 185.088226,39.482086 
	C187.831009,41.552788 190.382980,43.353756 192.934937,45.154724 
	C194.466797,46.982124 195.998657,48.809525 197.810883,50.808506 
	C199.025024,52.479164 199.958817,53.978249 201.101318,55.740402 
	C202.542389,59.092617 203.774734,62.181759 205.089066,65.636475 
	C205.834076,68.714340 206.497070,71.426628 207.306915,74.515701 
	C207.642685,76.988342 207.831619,79.084213 208.081238,81.583870 
	C208.148621,83.720490 208.155350,85.453316 208.261429,87.609360 
	C208.435669,91.447777 208.510574,94.862984 208.717285,98.657188 
	C208.763428,102.063919 208.677765,105.091652 208.720566,108.557251 
	C208.764633,111.705147 208.680237,114.415169 208.725052,117.560036 
	C208.768494,121.366570 208.682739,124.738251 208.727676,128.552109 
	C208.773376,131.047501 208.688370,133.100723 208.735291,135.576752 
	C208.654251,141.057251 208.441299,146.114944 208.221024,152.033508 
	C207.647583,158.678970 207.081451,164.463547 206.349442,170.487411 
	C205.983490,171.480072 205.783432,172.233444 205.335205,173.304504 
	C203.664017,177.394501 202.240967,181.166794 200.538788,185.113388 
	C198.733902,187.479889 197.208145,189.672073 195.389709,191.992249 
	C193.735123,193.503723 192.373184,194.887192 191.011230,196.270676 
	C189.453049,197.327728 187.894852,198.384766 186.163483,199.709412 
	C184.434875,200.699905 182.879440,201.422806 181.080780,202.355255 
	C179.100327,203.296280 177.363098,204.027725 175.314453,204.927643 
	C173.250061,205.410049 171.497116,205.723969 169.378601,206.162598 
	C167.579971,206.519958 166.146896,206.752594 164.359528,207.074799 
	C162.550201,207.276917 161.095154,207.389496 159.316040,207.673096 
	C157.277847,207.855499 155.563721,207.866837 153.426086,207.966217 
	C151.283325,208.034958 149.564087,208.015701 147.421326,208.080582 
	C145.607010,208.121811 144.216232,208.078918 142.412689,208.104401 
	C140.283173,208.127045 138.566422,208.081329 136.424988,208.103882 
	C133.623581,208.126938 131.246872,208.081696 128.428940,208.106720 
	C125.619041,208.132263 123.250366,208.087509 120.441910,208.110428 
	C115.974266,208.130402 111.946396,208.082703 107.459702,208.103363 
	C95.621002,207.560226 84.241150,206.948730 72.066605,206.199142 
	C70.568848,206.038193 69.865768,206.015335 68.844696,205.902893 
	C65.363548,204.842133 62.200390,203.870972 58.932846,202.578857 
	C56.912819,201.108948 54.997177,199.960007 52.937027,198.541916 
	C51.630688,197.471069 50.468853,196.669388 49.160492,195.565292 
	C47.412140,193.707306 45.810307,192.151733 44.105953,190.315674 
	C43.120956,188.970474 42.238483,187.905777 41.356014,186.841064 
	C40.746063,185.698166 40.136105,184.555283 39.268112,183.204681 
	C38.525452,181.801773 38.040825,180.606567 37.310249,179.198792 
	C36.825741,178.162933 36.587189,177.339676 36.145126,176.258728 
	C35.559002,174.312088 35.176384,172.623108 34.600090,170.609406 
	C34.228394,168.994919 34.050381,167.705170 33.754715,166.109131 
	C33.545467,165.080765 33.453869,164.358688 33.184937,163.316727 
	C32.988430,161.273041 32.969254,159.549225 32.836582,157.408279 
	C32.733173,155.507782 32.743259,154.024445 32.607311,152.201965 
	C32.436066,150.501740 32.410854,149.140656 32.257812,147.390244 
	C32.209820,145.272461 32.289654,143.543991 32.214630,141.408264 
	C32.074688,139.606461 32.089600,138.211899 32.011833,136.408386 
	C31.981035,133.297577 32.042915,130.595749 32.115105,126.995239 
	C32.063194,122.067375 32.000980,118.038170 31.938768,114.008965 
	C31.995203,112.612915 32.051640,111.216858 32.018749,109.409515 
	C31.989511,107.605972 32.049599,106.213722 32.020393,104.411148 
	C32.047947,102.284637 32.164799,100.568459 32.214024,98.426720 
	C32.228577,96.925980 32.310753,95.850800 32.271088,94.385696 
	C32.283352,92.323044 32.417458,90.650299 32.529762,88.557770 
	C32.611691,86.674530 32.715408,85.211075 32.772476,83.378159 
	C32.820065,81.941177 32.914299,80.873680 32.960407,79.404961 
M48.590317,132.877274 
	C48.673073,135.253464 48.755829,137.629669 48.594967,140.816132 
	C48.673218,142.214111 48.751465,143.612091 48.584305,145.873032 
	C48.739338,148.247330 48.894367,150.621628 48.914715,153.822510 
	C49.009270,155.211411 49.103828,156.600296 49.106915,158.695404 
	C49.326172,159.589798 49.545425,160.484192 49.649410,162.106903 
	C49.830112,163.070618 50.010818,164.034332 50.127090,165.679062 
	C50.604969,167.170486 51.082851,168.661896 51.717155,170.853271 
	C52.435707,172.321289 53.154259,173.789291 53.971485,175.895233 
	C54.727100,176.927048 55.482716,177.958847 56.398655,179.521805 
	C56.939190,180.011932 57.479725,180.502075 58.221359,181.579971 
	C59.335434,182.465302 60.449505,183.350647 61.985516,184.811615 
	C65.286858,186.286011 68.588203,187.760391 72.497139,189.692902 
	C86.669968,190.407562 100.842789,191.122238 115.932312,191.966110 
	C119.955093,191.921509 123.977875,191.876923 128.849976,191.968674 
	C130.567581,191.923798 132.285187,191.878922 134.851807,191.969193 
	C136.568329,191.925491 138.284851,191.881790 140.799255,191.973816 
	C141.867340,191.887604 142.935440,191.801392 144.859879,191.807480 
	C146.578354,191.744308 148.296814,191.681122 150.735703,191.785095 
	C152.178024,191.579773 153.620346,191.374435 155.868454,191.390579 
	C157.248093,191.239777 158.627716,191.088974 160.703049,191.056244 
	C161.839951,190.851166 162.976852,190.646103 164.918854,190.445221 
	C168.102066,189.366791 171.285263,188.288376 175.128311,187.098328 
	C177.460464,185.082947 179.792603,183.067566 182.787323,180.912979 
	C184.546921,178.318954 186.306503,175.724930 188.588181,172.590958 
	C189.656952,167.391052 190.725739,162.191147 191.961472,156.083328 
	C192.029755,150.719177 192.098022,145.355042 192.435822,139.092773 
	C192.350388,130.407928 192.264954,121.723091 192.437592,112.144585 
	C192.369141,108.455513 192.300674,104.766449 192.498688,100.297920 
	C192.342133,98.196396 192.185577,96.094864 192.140900,93.077454 
	C191.998428,89.388817 191.855942,85.700172 191.807999,81.235046 
	C191.215256,78.488518 190.622498,75.741982 190.143265,72.236862 
	C189.026962,69.492851 187.910660,66.748840 186.656845,63.357445 
	C182.570724,56.675468 176.623520,52.534641 168.476746,50.156815 
	C163.645767,49.564991 158.814804,48.973164 153.061798,48.214966 
	C146.381805,48.164696 139.701813,48.114426 132.104767,47.889530 
	C128.070068,47.967915 124.035378,48.046299 119.091217,47.901962 
	C114.390732,47.991764 109.690247,48.081570 104.063255,48.034943 
	C98.052246,48.171234 92.041229,48.307526 85.183853,48.372669 
	C75.500282,49.003365 66.003601,50.143803 58.358166,58.269501 
	C56.615978,60.849186 54.873791,63.428875 52.679279,66.588615 
	C52.038258,68.704590 51.397236,70.820572 50.308067,73.522614 
	C50.132385,74.989975 49.956707,76.457344 49.423534,78.603073 
	C49.335617,80.402870 49.247696,82.202667 48.995434,84.875038 
	C48.962334,87.238991 48.929234,89.602936 48.547611,92.581490 
	C48.622284,93.743774 48.696957,94.906067 48.559361,96.807152 
	C48.643005,98.561157 48.726650,100.315155 48.573910,102.910591 
	C48.652969,104.940010 48.732029,106.969437 48.573105,109.739960 
	C48.646755,111.826714 48.720409,113.913460 48.538807,116.834625 
	C48.630833,118.563805 48.722858,120.292992 48.593903,122.864799 
	C48.677528,125.916794 48.761158,128.968796 48.590317,132.877274 
z"/>
<path fill="#FB0949" opacity="1.000000" stroke="none" 
	d="
M206.515320,170.248108 
	C207.081451,164.463547 207.647583,158.678970 208.309647,152.441116 
	C212.958160,152.559769 215.903717,154.774063 217.070648,159.480377 
	C218.060165,163.471130 219.636627,167.316345 220.977097,171.612366 
	C221.000595,173.066025 221.000351,174.133286 220.717178,175.770844 
	C218.622833,177.560760 216.811417,178.780365 214.826843,179.713593 
	C211.940903,176.367508 209.228119,173.307816 206.515320,170.248108 
z"/>
<path fill="#F70544" opacity="1.000000" stroke="none" 
	d="
M215.000000,180.000000 
	C216.811417,178.780365 218.622833,177.560760 220.717438,176.171021 
	C221.666183,177.752258 222.814819,179.478958 222.905685,181.259628 
	C223.166489,186.371033 223.391846,191.541367 222.912415,196.620697 
	C222.093704,205.294785 225.043976,212.119232 231.875397,217.813385 
	C230.276489,220.668182 228.502808,223.226944 226.122147,225.742584 
	C222.900085,222.291260 220.016800,219.049088 217.767578,215.414520 
	C216.351395,213.126068 215.205643,210.273209 215.115219,207.633224 
	C214.800003,198.431625 214.997437,189.212479 215.000000,180.000000 
z"/>
<path fill="#9A02EA" opacity="1.000000" stroke="none" 
	d="
M70.993370,33.740070 
	C61.930054,35.835949 53.992390,40.132915 46.544746,46.076157 
	C44.720161,45.739979 43.242252,45.393600 41.385147,45.025925 
	C39.855942,44.810997 38.705933,44.617367 37.277412,44.209450 
	C41.801296,41.340691 46.621548,38.717838 51.399727,36.020466 
	C54.513115,34.262905 57.565342,32.396999 60.823059,30.289398 
	C65.771065,27.380764 70.540970,24.762362 75.654602,22.070738 
	C76.251480,22.497478 76.504631,22.997440 76.809708,24.085743 
	C74.905556,27.696081 72.949463,30.718077 70.993370,33.740070 
z"/>
<path fill="#FAB105" opacity="1.000000" stroke="none" 
	d="
M69.162689,205.992477 
	C69.865768,206.015335 70.568848,206.038193 71.607574,206.175507 
	C70.311661,207.668503 68.875488,209.464890 67.007721,210.338272 
	C63.167995,212.133759 59.031712,213.287933 55.154484,215.013824 
	C53.631962,215.691544 52.476479,217.193817 51.078041,218.660461 
	C41.841599,223.251648 32.680950,227.502960 23.204269,231.906830 
	C20.983316,230.930435 19.078398,229.801453 17.330420,228.188080 
	C19.774652,226.373718 21.924669,224.665863 24.372118,223.776779 
	C37.587299,218.975983 50.900982,214.446167 64.111694,209.633469 
	C65.988426,208.949768 67.488358,207.231766 69.162689,205.992477 
z"/>
<path fill="#FBA908" opacity="1.000000" stroke="none" 
	d="
M68.844696,205.902893 
	C67.488358,207.231766 65.988426,208.949768 64.111694,209.633469 
	C50.900982,214.446167 37.587299,218.975983 24.372118,223.776779 
	C21.924669,224.665863 19.774652,226.373718 17.184036,227.877625 
	C15.649670,226.932877 14.418626,225.814194 13.260381,224.110718 
	C26.843657,217.751480 40.369396,212.012177 53.846870,206.161667 
	C55.699806,205.357315 57.313026,204.000732 59.037231,202.899811 
	C62.200390,203.870972 65.363548,204.842133 68.844696,205.902893 
z"/>
<path fill="#FB9E09" opacity="1.000000" stroke="none" 
	d="
M58.932846,202.578857 
	C57.313026,204.000732 55.699806,205.357315 53.846870,206.161667 
	C40.369396,212.012177 26.843657,217.751480 13.137924,223.820740 
	C11.290075,221.991638 9.637483,219.867752 8.298087,217.321655 
	C18.813730,212.901306 29.039457,208.961182 39.208229,204.879166 
	C43.890163,202.999710 48.460560,200.842392 53.081535,198.811081 
	C54.997177,199.960007 56.912819,201.108948 58.932846,202.578857 
z"/>
<path fill="#FB930B" opacity="1.000000" stroke="none" 
	d="
M52.937027,198.541916 
	C48.460560,200.842392 43.890163,202.999710 39.208229,204.879166 
	C29.039457,208.961182 18.813730,212.901306 8.239578,216.971634 
	C6.906746,215.276810 5.945621,213.509796 5.303180,211.319702 
	C9.214042,209.609177 12.790751,208.276443 16.401293,207.042725 
	C27.362846,203.297165 38.337479,199.589890 49.307022,195.867706 
	C50.468853,196.669388 51.630688,197.471069 52.937027,198.541916 
z"/>
<path fill="#FB8A0D" opacity="1.000000" stroke="none" 
	d="
M49.160496,195.565292 
	C38.337479,199.589890 27.362846,203.297165 16.401293,207.042725 
	C12.790751,208.276443 9.214042,209.609177 5.245440,210.970337 
	C4.237283,209.291473 3.605550,207.538895 3.317428,205.384888 
	C14.230774,201.873077 24.855240,198.932266 35.337029,195.549362 
	C38.497814,194.529251 41.262398,192.281540 44.208473,190.596161 
	C45.810307,192.151733 47.412140,193.707306 49.160496,195.565292 
z"/>
<path fill="#FB8010" opacity="1.000000" stroke="none" 
	d="
M44.105949,190.315674 
	C41.262398,192.281540 38.497814,194.529251 35.337029,195.549362 
	C24.855240,198.932266 14.230774,201.873077 3.265563,205.014633 
	C2.585660,203.296219 2.301233,201.546661 2.086586,199.397461 
	C6.300836,197.994888 10.519320,197.225540 14.574549,195.940857 
	C23.322584,193.169571 31.986759,190.133575 41.020630,187.023468 
	C42.238483,187.905777 43.120956,188.970474 44.105949,190.315674 
z"/>
<path fill="#F902BD" opacity="1.000000" stroke="none" 
	d="
M193.021164,44.798058 
	C190.382980,43.353756 187.831009,41.552788 185.263184,39.177467 
	C189.165298,35.401817 193.083267,32.200523 197.442444,28.999485 
	C203.953247,27.655857 210.119919,26.637960 216.062759,24.868393 
	C221.120392,23.362410 225.920212,20.990644 230.834091,19.001915 
	C232.475632,21.770397 234.117172,24.538879 235.796616,27.655230 
	C222.940216,32.398460 210.026138,36.737740 197.177567,41.262939 
	C195.638596,41.804958 194.455460,43.357323 193.021164,44.798058 
z"/>
<path fill="#F80E41" opacity="1.000000" stroke="none" 
	d="
M200.817917,184.939087 
	C202.240967,181.166794 203.664017,177.394501 205.529739,173.716537 
	C206.645157,175.819290 207.672089,177.784012 207.926285,179.844070 
	C208.797592,186.905731 209.490814,193.993179 210.077286,201.085220 
	C210.758545,209.323654 212.214584,217.105301 218.872971,223.032059 
	C220.470322,224.453888 221.015213,227.058044 222.044144,229.118469 
	C220.392960,230.395126 218.741776,231.671783 216.561981,232.543518 
	C209.029327,221.147827 205.182419,209.244324 204.590805,196.125977 
	C204.420425,192.347992 202.134109,188.665405 200.817917,184.939087 
z"/>
<path fill="#F8153F" opacity="1.000000" stroke="none" 
	d="
M200.538788,185.113388 
	C202.134109,188.665405 204.420425,192.347992 204.590805,196.125977 
	C205.182419,209.244324 209.029327,221.147827 216.191132,232.517273 
	C214.785324,233.865891 213.221756,234.835785 211.254974,235.477081 
	C205.130646,223.671982 200.632614,211.792343 198.447937,199.080002 
	C198.019989,196.589874 196.629120,194.265228 195.682373,191.864258 
	C197.208145,189.672073 198.733902,187.479889 200.538788,185.113388 
z"/>
<path fill="#F90A43" opacity="1.000000" stroke="none" 
	d="
M222.377441,229.063919 
	C221.015213,227.058044 220.470322,224.453888 218.872971,223.032059 
	C212.214584,217.105301 210.758545,209.323654 210.077286,201.085220 
	C209.490814,193.993179 208.797592,186.905731 207.926285,179.844070 
	C207.672089,177.784012 206.645157,175.819290 205.777893,173.398834 
	C205.783432,172.233444 205.983490,171.480072 206.349457,170.487411 
	C209.228119,173.307816 211.940903,176.367508 214.826843,179.713593 
	C214.997437,189.212479 214.800003,198.431625 215.115219,207.633224 
	C215.205643,210.273209 216.351395,213.126068 217.767578,215.414520 
	C220.016800,219.049088 222.900085,222.291260 225.812134,225.875183 
	C224.976318,227.037079 223.843536,228.023239 222.377441,229.063919 
z"/>
<path fill="#F81E3B" opacity="1.000000" stroke="none" 
	d="
M195.389709,191.992249 
	C196.629120,194.265228 198.019989,196.589874 198.447937,199.080002 
	C200.632614,211.792343 205.130646,223.671982 210.927017,235.492218 
	C209.057053,236.530746 207.111832,237.225479 204.763031,237.877930 
	C200.957947,228.221848 197.450226,218.643646 194.206924,208.976746 
	C192.900482,205.082779 192.173355,200.994446 191.096909,196.632614 
	C192.373184,194.887192 193.735123,193.503723 195.389709,191.992249 
z"/>
<path fill="#F901C7" opacity="1.000000" stroke="none" 
	d="
M230.805542,18.669521 
	C225.920212,20.990644 221.120392,23.362410 216.062759,24.868393 
	C210.119919,26.637960 203.953247,27.655857 197.295609,28.667370 
	C196.138748,26.223387 195.569931,24.111769 195.001129,22.000149 
	C202.715546,17.321072 210.429993,12.641994 218.508408,7.785457 
	C222.840591,11.184373 226.808792,14.760748 230.805542,18.669521 
z"/>
<path fill="#CC00D9" opacity="1.000000" stroke="none" 
	d="
M132.971848,31.621929 
	C128.281876,31.675224 123.591888,31.728521 118.441246,31.693855 
	C119.887749,27.942051 121.794914,24.278208 123.853088,20.305416 
	C127.022377,19.377977 130.126068,19.019423 133.033600,18.063911 
	C135.655380,17.202301 137.051514,17.792500 137.792206,21.029140 
	C136.232300,24.992947 134.602066,28.307438 132.971848,31.621929 
z"/>
<path fill="#D70BD7" opacity="1.000000" stroke="none" 
	d="
M133.426712,31.713268 
	C134.602066,28.307438 136.232300,24.992947 137.933868,21.337603 
	C141.101608,19.374865 144.197983,17.752979 147.641083,16.067879 
	C148.323975,18.716490 148.660141,21.428318 148.928528,24.901501 
	C147.576508,27.723280 146.292297,29.783705 145.008072,31.844131 
	C141.299240,31.830957 137.590408,31.817783 133.426712,31.713268 
z"/>
<path fill="#F103C5" opacity="1.000000" stroke="none" 
	d="
M194.580017,22.000301 
	C195.569931,24.111769 196.138748,26.223387 196.854401,28.667120 
	C193.083267,32.200523 189.165298,35.401817 185.072357,38.907730 
	C180.793701,37.630341 176.690002,36.048328 172.363373,33.907307 
	C176.759888,29.898821 181.379333,26.449345 185.998779,22.999866 
	C188.718826,22.666727 191.438873,22.333590 194.580017,22.000301 
z"/>
<path fill="#EA03CD" opacity="1.000000" stroke="none" 
	d="
M185.976959,22.618750 
	C181.379333,26.449345 176.759888,29.898821 172.069992,33.690155 
	C169.593323,33.666859 167.187119,33.301708 164.395950,32.457466 
	C166.006927,27.652706 168.002853,23.327040 169.998779,19.001373 
	C171.435303,18.345032 172.871826,17.688688 174.654785,17.014891 
	C178.031570,16.998268 181.061935,16.999100 184.546448,16.999699 
	C185.318771,18.745523 185.636948,20.491579 185.976959,22.618750 
z"/>
<path fill="#A502EA" opacity="1.000000" stroke="none" 
	d="
M71.389206,33.735870 
	C72.949463,30.718077 74.905556,27.696081 76.931931,24.337849 
	C81.335365,20.333200 85.676384,16.674025 89.997307,12.991267 
	C91.466637,11.738936 92.885330,10.427184 94.664444,9.074621 
	C94.141533,15.612847 91.917137,21.473824 86.644173,25.990522 
	C85.095657,27.316944 84.280937,29.500031 83.064697,31.635941 
	C79.261337,32.564812 75.523186,33.148239 71.389206,33.735870 
z"/>
<path fill="#E201CE" opacity="1.000000" stroke="none" 
	d="
M169.570374,19.000900 
	C168.002853,23.327040 166.006927,27.652706 164.004608,32.343254 
	C157.976929,32.462246 151.955673,32.216358 145.471237,31.907303 
	C146.292297,29.783705 147.576508,27.723280 148.929565,25.330399 
	C153.762375,23.042931 158.526382,21.087921 163.644272,19.065121 
	C165.712769,18.998362 167.427353,18.999393 169.570374,19.000900 
z"/>
<path fill="#FB0F62" opacity="1.000000" stroke="none" 
	d="
M31.514915,114.007950 
	C32.000980,118.038170 32.063194,122.067375 32.030067,126.552094 
	C29.225451,126.690582 26.516178,126.373550 23.403625,126.030670 
	C22.383947,125.199890 21.767548,124.394951 21.072863,123.293976 
	C21.363688,121.542885 21.732800,120.087837 22.049419,118.319733 
	C23.270496,116.884277 24.544064,115.761871 25.909058,114.332512 
	C27.697342,114.019348 29.394203,114.013145 31.514915,114.007950 
z"/>
<path fill="#FB0F62" opacity="1.000000" stroke="none" 
	d="
M192.179535,113.038246 
	C192.264954,121.723091 192.350388,130.407928 191.971375,139.501892 
	C189.007782,139.268082 186.508636,138.625122 183.989136,137.622559 
	C182.857742,134.822403 180.250961,131.812759 180.921616,130.050079 
	C182.787552,125.145851 179.984818,124.044151 176.672638,123.133751 
	C173.210312,122.182083 169.618637,121.701096 165.994446,120.599792 
	C165.700226,117.459442 165.495041,114.733681 165.731674,112.009201 
	C174.842178,112.353081 183.510849,112.695663 192.179535,113.038246 
z"/>
<path fill="#FB2349" opacity="1.000000" stroke="none" 
	d="
M191.794510,156.991241 
	C190.725739,162.191147 189.656952,167.391052 188.152618,172.563522 
	C186.169785,170.399445 184.796234,168.106201 183.040009,166.157867 
	C179.053513,161.735275 176.844269,155.363312 169.981186,153.638519 
	C168.154297,148.125031 164.306259,145.339203 159.290070,143.667389 
	C160.745361,140.504196 162.120392,137.673767 163.878693,134.922501 
	C168.842941,137.337891 173.423904,139.674133 178.025177,142.377274 
	C180.570663,149.479080 185.168442,154.213852 191.794510,156.991241 
z"/>
<path fill="#FC7128" opacity="1.000000" stroke="none" 
	d="
M144.003525,191.715179 
	C142.935440,191.801392 141.867340,191.887604 140.321136,191.580811 
	C136.071609,185.821365 129.927094,183.974136 124.766312,180.597885 
	C116.051910,174.896820 106.209763,174.423431 96.726730,173.279114 
	C82.950439,171.616745 69.406929,174.707489 56.238331,178.990662 
	C55.482716,177.958847 54.727100,176.927048 54.140350,175.250885 
	C55.137672,174.113388 55.927525,173.277283 56.800434,173.179016 
	C68.266068,171.888290 79.479225,167.980621 91.275330,169.902222 
	C92.761292,170.144287 94.420044,169.325699 96.332352,168.998444 
	C97.110741,168.997879 97.555511,168.997421 98.381577,169.071320 
	C102.508080,169.431091 106.253296,169.716461 110.383118,170.006531 
	C112.510834,170.341751 114.253929,170.672302 116.106834,171.336578 
	C117.415871,172.478760 118.535606,173.456360 119.829086,174.064285 
	C123.871101,175.963959 128.470474,177.074524 131.938324,179.700119 
	C136.422119,183.094864 140.022659,187.656174 144.003525,191.715179 
z"/>
<path fill="#FD841E" opacity="1.000000" stroke="none" 
	d="
M71.889549,189.234772 
	C68.588203,187.760391 65.286858,186.286011 62.146072,184.342316 
	C64.675354,183.248917 67.010986,182.342087 69.419762,182.060226 
	C74.283218,181.491180 79.206055,181.429459 84.069496,180.860291 
	C98.101830,179.218079 111.401794,181.811523 124.093330,187.711960 
	C125.689339,188.453964 126.712227,190.428726 128.000656,191.832336 
	C123.977875,191.876923 119.955093,191.921509 115.375320,191.559921 
	C113.187576,190.178665 111.667236,188.753586 109.903427,188.320831 
	C106.059540,187.377731 102.113419,186.651932 98.170059,186.354111 
	C89.258438,185.681076 80.318039,185.275604 71.889549,189.234772 
z"/>
<path fill="#D409A0" opacity="1.000000" stroke="none" 
	d="
M48.896137,91.966888 
	C48.929234,89.602936 48.962334,87.238991 49.514587,84.437805 
	C60.355652,82.999382 70.677567,81.998192 81.430824,80.997849 
	C86.581581,81.137672 91.300987,81.276649 95.770798,81.673851 
	C92.056610,84.966492 88.592033,88.000908 84.758926,90.881088 
	C81.158951,90.818657 77.926758,90.889877 74.696198,91.006256 
	C66.095802,91.316078 57.496109,91.645348 48.896137,91.966888 
z"/>
<path fill="#FB3440" opacity="1.000000" stroke="none" 
	d="
M182.124756,181.052185 
	C179.792603,183.067566 177.460464,185.082947 174.476227,186.968475 
	C169.549423,180.224533 165.274719,173.610428 161.000214,166.601013 
	C160.809128,159.568604 155.338043,157.076157 151.310181,153.332947 
	C152.654587,151.993622 153.799515,150.928696 155.129089,150.159485 
	C158.876007,152.303894 162.438309,154.152603 166.065109,156.348206 
	C169.805847,162.373154 173.466522,168.061371 177.165497,173.724564 
	C178.778122,176.193527 180.469269,178.611206 182.124756,181.052185 
z"/>
<path fill="#F70784" opacity="1.000000" stroke="none" 
	d="
M191.713470,82.011536 
	C191.855942,85.700172 191.998428,89.388817 191.619507,93.546394 
	C185.578491,94.573708 180.040024,94.992294 174.544983,95.733109 
	C169.848938,96.366203 165.202744,97.369102 160.313065,97.980515 
	C159.011261,95.931503 157.930893,94.110413 157.054291,91.975006 
	C160.451309,90.443367 163.689438,89.329269 166.820679,87.969116 
	C168.633743,87.181580 170.274734,85.997887 172.436752,84.994202 
	C179.158051,84.001137 185.435760,83.006340 191.713470,82.011536 
z"/>
<path fill="#FD7823" opacity="1.000000" stroke="none" 
	d="
M56.318493,179.256226 
	C69.406929,174.707489 82.950439,171.616745 96.726730,173.279114 
	C106.209763,174.423431 116.051910,174.896820 124.766312,180.597885 
	C129.927094,183.974136 136.071609,185.821365 139.922180,191.512939 
	C138.284851,191.881790 136.568329,191.925491 134.347137,191.574280 
	C128.471344,187.839996 123.456482,183.572510 117.657906,181.346802 
	C103.906029,176.068329 89.441879,176.547653 75.050354,178.287674 
	C69.348015,178.977127 63.695473,180.078415 58.020256,180.992203 
	C57.479725,180.502075 56.939190,180.011932 56.318493,179.256226 
z"/>
<path fill="#E106B3" opacity="1.000000" stroke="none" 
	d="
M133.021820,48.064156 
	C139.701813,48.114426 146.381805,48.164696 153.516510,48.663731 
	C152.649704,52.739437 151.328201,56.366379 149.640015,60.064171 
	C144.845276,61.425385 140.417206,62.715744 135.559509,64.006760 
	C133.410339,64.005737 131.690826,64.004059 130.040771,63.663734 
	C130.825119,61.797527 131.539993,60.269966 132.306244,58.632607 
	C130.333786,58.028240 128.668777,57.518078 127.098488,56.687515 
	C129.136078,53.599464 131.078949,50.831810 133.021820,48.064156 
z"/>
<path fill="#FD4737" opacity="1.000000" stroke="none" 
	d="
M161.000000,166.996338 
	C165.274719,173.610428 169.549423,180.224533 174.146301,187.024292 
	C171.285263,188.288376 168.102066,189.366791 164.444977,190.061157 
	C157.964859,178.941727 150.953232,168.925552 142.830200,159.575012 
	C144.351013,158.539902 145.674103,157.775604 147.069336,157.348999 
	C151.760971,160.789902 156.380493,163.893127 161.000000,166.996338 
z"/>
<path fill="#BB05C8" opacity="1.000000" stroke="none" 
	d="
M53.131599,66.008560 
	C54.873791,63.428875 56.615978,60.849186 59.021194,58.280594 
	C65.697769,59.580647 82.207497,53.409477 86.030220,48.443817 
	C92.041229,48.307526 98.052246,48.171234 104.441536,48.430435 
	C102.209167,50.551823 99.598518,52.277718 96.611649,54.075729 
	C91.309647,55.662197 86.421883,57.317215 81.449936,58.660679 
	C72.036011,61.204418 62.573769,63.569347 53.131599,66.008560 
z"/>
<path fill="#C105BD" opacity="1.000000" stroke="none" 
	d="
M52.905441,66.298584 
	C62.573769,63.569347 72.036011,61.204418 81.449936,58.660679 
	C86.421883,57.317215 91.309647,55.662197 96.546661,54.408752 
	C96.237030,56.113895 95.616158,57.558136 94.675896,59.156685 
	C92.846390,59.949390 91.274612,60.473087 89.836937,61.246189 
	C83.869141,64.455315 77.941826,67.739716 71.535698,70.996933 
	C64.299904,71.643761 57.528061,72.290154 50.756218,72.936539 
	C51.397236,70.820572 52.038258,68.704590 52.905441,66.298584 
z"/>
<path fill="#F90E6F" opacity="1.000000" stroke="none" 
	d="
M192.308563,112.591415 
	C183.510849,112.695663 174.842178,112.353081 165.598785,111.636307 
	C164.505295,109.215752 163.986511,107.169373 163.860062,104.977356 
	C173.579010,103.580276 182.905624,102.328827 192.232208,101.077377 
	C192.300674,104.766449 192.369141,108.455513 192.308563,112.591415 
z"/>
<path fill="#FD7F21" opacity="1.000000" stroke="none" 
	d="
M58.120808,181.286087 
	C63.695473,180.078415 69.348015,178.977127 75.050354,178.287674 
	C89.441879,176.547653 103.906029,176.068329 117.657906,181.346802 
	C123.456482,183.572510 128.471344,187.839996 133.922623,191.506714 
	C132.285187,191.878922 130.567581,191.923798 128.425323,191.900513 
	C126.712227,190.428726 125.689339,188.453964 124.093330,187.711960 
	C111.401794,181.811523 98.101830,179.218079 84.069496,180.860291 
	C79.206055,181.429459 74.283218,181.491180 69.419762,182.060226 
	C67.010986,182.342087 64.675354,183.248917 61.935101,184.054489 
	C60.449505,183.350647 59.335434,182.465302 58.120808,181.286087 
z"/>
<path fill="#FC602D" opacity="1.000000" stroke="none" 
	d="
M51.560734,170.153320 
	C51.082851,168.661896 50.604969,167.170486 50.585766,165.339233 
	C58.363689,163.335159 65.682938,161.670944 73.469711,160.004990 
	C81.000053,159.316116 88.062874,158.628983 95.462555,158.011841 
	C98.198631,159.424683 100.597847,160.767517 102.825180,162.454956 
	C101.140503,163.199203 99.639107,163.882385 98.112717,163.943741 
	C94.021179,164.108200 89.871361,163.625046 85.835716,164.128571 
	C82.490967,164.545898 79.275764,166.001587 75.544868,166.997452 
	C67.244621,168.049561 59.402679,169.101440 51.560734,170.153320 
z"/>
<path fill="#FB2941" opacity="1.000000" stroke="none" 
	d="
M182.456039,180.982574 
	C180.469269,178.611206 178.778122,176.193527 177.165497,173.724564 
	C173.466522,168.061371 169.805847,162.373154 166.352798,156.209579 
	C167.717941,155.149384 168.859879,154.574692 170.001831,154.000000 
	C176.844269,155.363312 179.053513,161.735275 183.040009,166.157867 
	C184.796234,168.106201 186.169785,170.399445 187.891586,172.833496 
	C186.306503,175.724930 184.546921,178.318954 182.456039,180.982574 
z"/>
<path fill="#EE08AD" opacity="1.000000" stroke="none" 
	d="
M169.122375,50.515598 
	C176.623520,52.534641 182.570724,56.675468 186.343781,63.710930 
	C182.988464,65.106575 179.946243,66.148735 176.607269,67.009773 
	C171.033630,61.599583 167.925781,61.031765 160.841812,63.748848 
	C159.783188,61.976002 158.892517,60.487450 158.294586,58.823669 
	C162.099014,55.937492 165.610687,53.226543 169.122375,50.515598 
z"/>
<path fill="#CF09AA" opacity="1.000000" stroke="none" 
	d="
M80.999481,80.997009 
	C70.677567,81.998192 60.355652,82.999382 49.596756,84.001518 
	C49.247696,82.202667 49.335617,80.402870 50.083015,78.280502 
	C61.161259,76.637848 71.580025,75.317780 82.438698,73.998322 
	C86.919479,73.666664 90.960350,73.334404 94.891365,73.336777 
	C92.325813,74.821892 89.822327,75.882072 87.428444,77.149307 
	C85.224205,78.316170 83.137794,79.705612 80.999481,80.997009 
z"/>
<path fill="#F82083" opacity="1.000000" stroke="none" 
	d="
M192.365448,100.687653 
	C182.905624,102.328827 173.579010,103.580276 163.678558,104.700455 
	C162.247986,102.448936 161.391251,100.328682 160.534500,98.208435 
	C165.202744,97.369102 169.848938,96.366203 174.544983,95.733109 
	C180.040024,94.992294 185.578491,94.573708 191.563568,94.004333 
	C192.185577,96.094864 192.342133,98.196396 192.365448,100.687653 
z"/>
<path fill="#C807B4" opacity="1.000000" stroke="none" 
	d="
M81.998787,73.997704 
	C71.580025,75.317780 61.161259,76.637848 50.261761,77.941315 
	C49.956707,76.457344 50.132385,74.989975 50.532143,73.229576 
	C57.528061,72.290154 64.299904,71.643761 71.924576,70.922256 
	C78.851608,69.565475 84.925804,68.283806 90.922592,67.343575 
	C89.502960,68.813789 88.225800,70.034134 86.800850,71.046455 
	C85.272598,72.132172 83.605362,73.022247 81.998787,73.997704 
z"/>
<path fill="#FC5238" opacity="1.000000" stroke="none" 
	d="
M142.632462,159.845825 
	C150.953232,168.925552 157.964859,178.941727 164.042419,190.059052 
	C162.976852,190.646103 161.839951,190.851166 160.332550,190.636612 
	C157.372330,182.598145 151.755142,177.770309 144.931183,173.653992 
	C143.255127,171.556137 141.689651,169.755615 140.033630,168.042603 
	C138.405136,166.358093 136.684784,164.762390 135.309631,162.946808 
	C137.953857,161.792557 140.293152,160.819183 142.632462,159.845825 
z"/>
<path fill="#FB3F40" opacity="1.000000" stroke="none" 
	d="
M49.049397,152.995911 
	C48.894367,150.621628 48.739338,148.247330 49.112633,145.462097 
	C57.891712,146.137390 65.507133,143.838547 72.925499,140.602646 
	C73.418610,140.387558 73.644997,139.561005 74.382248,139.087158 
	C76.318909,139.383148 77.868774,139.610840 79.639076,140.071854 
	C80.895988,142.208023 81.932457,144.110886 82.569901,146.092712 
	C71.130379,148.446442 60.089890,150.721176 49.049397,152.995911 
z"/>
<path fill="#FC602D" opacity="1.000000" stroke="none" 
	d="
M155.062668,191.169098 
	C153.620346,191.374435 152.178024,191.579773 150.345581,191.365234 
	C144.792465,183.044205 138.139694,176.984985 128.925323,173.659485 
	C127.375565,172.117950 125.800400,171.017548 124.458656,169.682541 
	C123.148010,168.378464 122.075623,166.834930 121.256058,165.313522 
	C123.075851,165.200363 124.538231,165.170181 126.127823,165.453156 
	C131.835678,168.510620 137.416306,171.254974 143.066742,174.335388 
	C144.336166,176.192825 145.600052,177.668427 146.722748,179.244568 
	C149.536789,183.195145 152.286911,187.191269 155.062668,191.169098 
z"/>
<path fill="#E21088" opacity="1.000000" stroke="none" 
	d="
M48.810295,102.069160 
	C48.726650,100.315155 48.643005,98.561157 49.082901,96.413872 
	C56.712864,95.931931 63.821529,95.702927 70.924744,95.816017 
	C74.288185,95.869576 77.641212,96.577316 80.938248,97.330490 
	C80.129402,99.114098 79.381264,100.555885 78.256485,101.965790 
	C76.249977,101.710220 74.614944,101.263161 72.991096,101.300636 
	C64.929214,101.486656 56.870274,101.800400 48.810295,102.069160 
z"/>
<path fill="#FD921F" opacity="1.000000" stroke="none" 
	d="
M72.193344,189.463837 
	C80.318039,185.275604 89.258438,185.681076 98.170059,186.354111 
	C102.113419,186.651932 106.059540,187.377731 109.903427,188.320831 
	C111.667236,188.753586 113.187576,190.178665 114.916977,191.495331 
	C100.842789,191.122238 86.669968,190.407562 72.193344,189.463837 
z"/>
<path fill="#F12071" opacity="1.000000" stroke="none" 
	d="
M48.814888,122.022171 
	C48.722858,120.292992 48.630833,118.563805 49.008156,116.374146 
	C58.218822,114.607193 66.960136,113.300735 75.715996,112.391846 
	C75.469292,115.192528 75.208038,117.595642 74.490707,119.998917 
	C68.360977,120.662445 62.687317,121.325813 56.591248,121.990517 
	C53.717522,122.001961 51.266205,122.012070 48.814888,122.022171 
z"/>
<path fill="#D305BE" opacity="1.000000" stroke="none" 
	d="
M132.563293,47.976845 
	C131.078949,50.831810 129.136078,53.599464 126.732986,56.756752 
	C119.847710,58.763294 113.422638,60.380199 107.017227,61.631756 
	C107.357811,59.844219 107.678749,58.422035 108.312668,56.848553 
	C112.417328,53.839733 116.209007,50.982208 120.000687,48.124680 
	C124.035378,48.046299 128.070068,47.967915 132.563293,47.976845 
z"/>
<path fill="#FE1348" opacity="1.000000" stroke="none" 
	d="
M191.877991,156.537292 
	C185.168442,154.213852 180.570663,149.479080 178.355103,142.308334 
	C180.446304,140.575714 182.227890,139.278931 184.009476,137.982147 
	C186.508636,138.625122 189.007782,139.268082 191.836624,139.950958 
	C192.098022,145.355042 192.029755,150.719177 191.877991,156.537292 
z"/>
<path fill="#E7137F" opacity="1.000000" stroke="none" 
	d="
M48.692101,102.489876 
	C56.870274,101.800400 64.929214,101.486656 72.991096,101.300636 
	C74.614944,101.263161 76.249977,101.710220 78.196350,102.287849 
	C77.832253,104.473656 77.151665,106.305504 76.004929,108.109634 
	C66.629547,108.387558 57.720318,108.693207 48.811085,108.998856 
	C48.732029,106.969437 48.652969,104.940010 48.692101,102.489876 
z"/>
<path fill="#FD4737" opacity="1.000000" stroke="none" 
	d="
M48.982056,153.409210 
	C60.089890,150.721176 71.130379,148.446442 82.840401,146.254105 
	C84.351082,147.529526 85.192230,148.722549 85.827103,150.213165 
	C84.602478,150.949249 83.613243,151.667648 82.560692,151.777054 
	C78.323013,152.217545 73.982475,152.054062 69.834480,152.885086 
	C62.893520,154.275696 56.070847,156.256683 49.198387,157.989197 
	C49.103828,156.600296 49.009270,155.211411 48.982056,153.409210 
z"/>
<path fill="#DF1D98" opacity="1.000000" stroke="none" 
	d="
M80.998947,96.988663 
	C77.641212,96.577316 74.288185,95.869576 70.924744,95.816017 
	C63.821529,95.702927 56.712864,95.931931 49.189034,96.044472 
	C48.696957,94.906067 48.622284,93.743774 48.721874,92.274193 
	C57.496109,91.645348 66.095802,91.316078 74.696198,91.006256 
	C77.926758,90.889877 81.158951,90.818657 84.657898,91.202057 
	C83.616577,93.447723 82.307762,95.218193 80.998947,96.988663 
z"/>
<path fill="#F60891" opacity="1.000000" stroke="none" 
	d="
M191.760742,81.623291 
	C185.435760,83.006340 179.158051,84.001137 172.435822,84.654747 
	C171.989883,83.860733 171.988495,83.407906 172.204498,82.698776 
	C174.362686,79.624969 176.303482,76.807480 178.650375,73.980690 
	C182.714233,73.646080 186.371994,73.320763 190.029755,72.995445 
	C190.622498,75.741982 191.215256,78.488518 191.760742,81.623291 
z"/>
<path fill="#CA04C4" opacity="1.000000" stroke="none" 
	d="
M119.545952,48.013321 
	C116.209007,50.982208 112.417328,53.839733 107.906860,56.875702 
	C103.123802,57.703552 99.059547,58.352962 94.995285,59.002373 
	C95.616158,57.558136 96.237030,56.113895 96.922882,54.336636 
	C99.598518,52.277718 102.209167,50.551823 104.904785,48.498650 
	C109.690247,48.081570 114.390732,47.991764 119.545952,48.013321 
z"/>
<path fill="#FC5238" opacity="1.000000" stroke="none" 
	d="
M49.152649,158.342300 
	C56.070847,156.256683 62.893520,154.275696 69.834480,152.885086 
	C73.982475,152.054062 78.323013,152.217545 82.560692,151.777054 
	C83.613243,151.667648 84.602478,150.949249 86.110634,150.383423 
	C87.744301,151.483032 88.888145,152.709976 89.738960,154.162827 
	C86.849861,154.650742 84.204369,154.684113 81.670067,155.231903 
	C78.400642,155.938553 75.220177,157.056763 71.534836,157.998413 
	C63.835823,158.298141 56.308971,156.741455 49.764679,161.378586 
	C49.545425,160.484192 49.326172,159.589798 49.152649,158.342300 
z"/>
<path fill="#FD6929" opacity="1.000000" stroke="none" 
	d="
M51.638947,170.503296 
	C59.402679,169.101440 67.244621,168.049561 75.964684,166.996216 
	C83.228111,167.662689 89.613426,168.330612 95.998734,168.998535 
	C94.420044,169.325699 92.761292,170.144287 91.275330,169.902222 
	C79.479225,167.980621 68.266068,171.888290 56.800434,173.179016 
	C55.927525,173.277283 55.137672,174.113388 54.091011,174.931915 
	C53.154259,173.789291 52.435707,172.321289 51.638947,170.503296 
z"/>
<path fill="#FD6929" opacity="1.000000" stroke="none" 
	d="
M129.002106,173.997894 
	C138.139694,176.984985 144.792465,183.044205 149.985367,191.281647 
	C148.296814,191.681122 146.578354,191.744308 144.431702,191.761322 
	C140.022659,187.656174 136.422119,183.094864 131.938324,179.700119 
	C128.470474,177.074524 123.871101,175.963959 119.829086,174.064285 
	C118.535606,173.456360 117.415871,172.478760 116.488068,171.408966 
	C120.840378,172.097733 124.921242,173.047821 129.002106,173.997894 
z"/>
<path fill="#EB1574" opacity="1.000000" stroke="none" 
	d="
M48.692093,109.369408 
	C57.720318,108.693207 66.629547,108.387558 75.947876,108.499664 
	C76.138466,109.943031 75.919960,110.968651 75.701454,111.994270 
	C66.960136,113.300735 58.218822,114.607193 49.135788,115.956940 
	C48.720409,113.913460 48.646755,111.826714 48.692093,109.369408 
z"/>
<path fill="#E90CB5" opacity="1.000000" stroke="none" 
	d="
M168.799561,50.336205 
	C165.610687,53.226543 162.099014,55.937492 157.903839,58.899113 
	C154.815811,59.430965 152.411255,59.712143 150.006714,59.993320 
	C151.328201,56.366379 152.649704,52.739437 153.977509,48.746918 
	C158.814804,48.973164 163.645767,49.564991 168.799561,50.336205 
z"/>
<path fill="#B910D2" opacity="1.000000" stroke="none" 
	d="
M85.607040,48.408241 
	C82.207497,53.409477 65.697769,59.580647 59.324089,58.138748 
	C66.003601,50.143803 75.500282,49.003365 85.607040,48.408241 
z"/>
<path fill="#FB3440" opacity="1.000000" stroke="none" 
	d="
M73.995445,139.018860 
	C73.644997,139.561005 73.418610,140.387558 72.925499,140.602646 
	C65.507133,143.838547 57.891712,146.137390 49.235336,145.030609 
	C48.751465,143.612091 48.673218,142.214111 49.159332,140.410248 
	C52.817188,139.668945 55.910675,139.333557 59.469788,138.997269 
	C64.622093,139.003876 69.308769,139.011368 73.995445,139.018860 
z"/>
<path fill="#FC582D" opacity="1.000000" stroke="none" 
	d="
M49.707047,161.742737 
	C56.308971,156.741455 63.835823,158.298141 71.656288,158.251251 
	C72.496925,159.004532 72.749557,159.505630 73.002190,160.006714 
	C65.682938,161.670944 58.363689,163.335159 50.617981,164.998718 
	C50.010818,164.034332 49.830112,163.070618 49.707047,161.742737 
z"/>
<path fill="#FA1B55" opacity="1.000000" stroke="none" 
	d="
M48.704395,122.443481 
	C51.266205,122.012070 53.717522,122.001961 56.777466,122.274544 
	C59.604527,124.050560 61.822964,125.543877 63.753700,127.259987 
	C60.012566,128.979233 56.559139,130.475693 52.679714,131.980408 
	C51.117409,131.999390 49.981094,132.010086 48.844784,132.020782 
	C48.761158,128.968796 48.677528,125.916794 48.704395,122.443481 
z"/>
<path fill="#FB2E48" opacity="1.000000" stroke="none" 
	d="
M48.717552,132.449036 
	C49.981094,132.010086 51.117409,131.999390 53.130753,131.977158 
	C58.016262,131.970367 62.024738,131.975113 65.951408,132.317566 
	C63.581116,134.769577 61.292637,136.883865 59.004158,138.998169 
	C55.910675,139.333557 52.817188,139.668945 49.281143,140.005096 
	C48.755829,137.629669 48.673073,135.253464 48.717552,132.449036 
z"/>
<path fill="#FD019D" opacity="1.000000" stroke="none" 
	d="
M190.086517,72.616150 
	C186.371994,73.320763 182.714233,73.646080 178.601440,73.589783 
	C177.732254,71.202415 177.318130,69.196655 176.904007,67.190887 
	C179.946243,66.148735 182.988464,65.106575 186.412537,64.034622 
	C187.910660,66.748840 189.026962,69.492851 190.086517,72.616150 
z"/>
<path fill="#FC582D" opacity="1.000000" stroke="none" 
	d="
M155.465561,191.279846 
	C152.286911,187.191269 149.536789,183.195145 146.722748,179.244568 
	C145.600052,177.668427 144.336166,176.192825 143.400970,174.334412 
	C144.110977,173.994781 144.556534,173.992203 145.002106,173.989624 
	C151.755142,177.770309 157.372330,182.598145 159.984711,190.577576 
	C158.627716,191.088974 157.248093,191.239777 155.465561,191.279846 
z"/>
<path fill="#FFFCFD" opacity="1.000000" stroke="none" 
	d="
M75.715996,112.391846 
	C75.919960,110.968651 76.138466,109.943031 76.414024,108.527374 
	C77.151665,106.305504 77.832253,104.473656 78.572983,102.319748 
	C79.381264,100.555885 80.129402,99.114098 80.938248,97.330482 
	C82.307762,95.218193 83.616577,93.447723 85.026428,91.356293 
	C88.592033,88.000908 92.056610,84.966492 96.071213,81.569702 
	C105.687454,75.756058 115.565331,74.005127 126.386017,74.873016 
	C130.798416,76.012459 134.818649,77.043472 139.060150,78.343658 
	C142.446152,80.444176 145.610870,82.275513 148.942322,84.400421 
	C151.689545,87.225769 154.270050,89.757545 156.850540,92.289322 
	C157.930893,94.110413 159.011261,95.931503 160.313065,97.980515 
	C161.391251,100.328682 162.247986,102.448936 163.286224,104.846092 
	C163.986511,107.169373 164.505295,109.215752 165.156967,111.635017 
	C165.495041,114.733681 165.700226,117.459442 165.900421,121.007492 
	C165.095428,126.167633 164.295410,130.505478 163.495407,134.843338 
	C162.120392,137.673767 160.745361,140.504196 159.040421,143.890167 
	C157.455154,146.251755 156.199814,148.057770 154.944458,149.863770 
	C153.799515,150.928696 152.654587,151.993622 151.053696,153.475281 
	C149.397552,154.931778 148.197372,155.971542 146.997192,157.011307 
	C145.674103,157.775604 144.351013,158.539902 142.830200,159.575012 
	C140.293152,160.819183 137.953857,161.792557 134.925110,162.951492 
	C131.490662,163.804718 128.745636,164.472366 126.000603,165.140015 
	C124.538231,165.170181 123.075851,165.200363 120.884628,165.222061 
	C114.436203,164.179184 108.716629,163.144775 102.997055,162.110352 
	C100.597847,160.767517 98.198631,159.424683 95.292023,157.731293 
	C93.200409,156.232803 91.616203,155.084869 90.031998,153.936935 
	C88.888145,152.709976 87.744301,151.483032 86.316917,150.085815 
	C85.192230,148.722549 84.351082,147.529526 83.239426,146.175110 
	C81.932457,144.110886 80.895988,142.208023 79.552414,139.704437 
	C78.380913,136.744415 77.516518,134.385147 76.641296,131.694595 
	C76.269554,129.880356 75.908630,128.397400 75.548660,126.479843 
	C75.348663,124.029755 75.147728,122.014259 74.946785,119.998756 
	C75.208038,117.595642 75.469292,115.192528 75.715996,112.391846 
M101.127388,141.688034 
	C110.533707,149.436157 120.823250,151.433121 132.864075,146.233414 
	C135.314926,144.183777 137.765762,142.134140 140.894547,140.066086 
	C142.288895,138.385025 143.683243,136.703964 145.650681,134.633926 
	C146.503372,132.442947 147.356079,130.251968 148.689087,127.463997 
	C148.895737,125.677895 149.102386,123.891785 149.690872,121.481339 
	C149.446808,119.322052 149.202744,117.162773 149.033737,114.255058 
	C148.123260,111.805115 147.212784,109.355179 146.130112,106.218056 
	C143.172592,102.908646 140.215073,99.599236 136.797256,95.833923 
	C123.749985,87.828217 109.307266,89.392456 99.106934,100.167740 
	C97.443100,102.779007 95.779259,105.390266 93.687744,108.573166 
	C93.164932,110.382469 92.642120,112.191772 91.818024,114.846092 
	C91.677536,116.917030 91.537056,118.987976 91.286873,121.737511 
	C91.441772,122.160835 91.596680,122.584160 91.654778,123.790688 
	C92.116379,125.526672 92.577980,127.262657 93.026619,129.696899 
	C93.954666,131.493393 94.882713,133.289886 96.027222,135.718964 
	C97.628799,137.501648 99.230377,139.284317 101.127388,141.688034 
z"/>
<path fill="#FA1B55" opacity="1.000000" stroke="none" 
	d="
M163.878677,134.922501 
	C164.295410,130.505478 165.095428,126.167633 165.989471,121.422073 
	C169.618637,121.701096 173.210312,122.182083 176.672638,123.133751 
	C179.984818,124.044151 182.787552,125.145851 180.921616,130.050079 
	C180.250961,131.812759 182.857742,134.822403 183.989136,137.622559 
	C182.227890,139.278931 180.446304,140.575714 178.334808,141.941437 
	C173.423904,139.674133 168.842941,137.337891 163.878677,134.922501 
z"/>
<path fill="#FB2E48" opacity="1.000000" stroke="none" 
	d="
M155.129089,150.159485 
	C156.199814,148.057770 157.455154,146.251755 158.960144,144.222946 
	C164.306259,145.339203 168.154297,148.125031 169.981186,153.638519 
	C168.859879,154.574692 167.717941,155.149384 166.288300,155.862671 
	C162.438309,154.152603 158.876007,152.303894 155.129089,150.159485 
z"/>
<path fill="#FC6A30" opacity="1.000000" stroke="none" 
	d="
M102.825180,162.454956 
	C108.716629,163.144775 114.436203,164.179184 120.527206,165.305054 
	C122.075623,166.834930 123.148010,168.378464 124.458656,169.682541 
	C125.800400,171.017548 127.375565,172.117950 128.925323,173.659470 
	C124.921242,173.047821 120.840378,172.097733 116.378265,171.075256 
	C114.253929,170.672302 112.510834,170.341751 110.067322,169.785706 
	C106.310692,168.920532 103.269295,168.181839 100.186340,167.721100 
	C99.535751,167.623871 98.732956,168.545013 98.000290,168.996948 
	C97.555511,168.997421 97.110741,168.997879 96.332352,168.998444 
	C89.613426,168.330612 83.228111,167.662689 76.422989,166.996002 
	C79.275764,166.001587 82.490967,164.545898 85.835716,164.128571 
	C89.871361,163.625046 94.021179,164.108200 98.112717,163.943741 
	C99.639107,163.882385 101.140503,163.199203 102.825180,162.454956 
z"/>
<path fill="#FD6929" opacity="1.000000" stroke="none" 
	d="
M98.381577,169.071320 
	C98.732956,168.545013 99.535751,167.623871 100.186340,167.721100 
	C103.269295,168.181839 106.310692,168.920532 109.682701,169.781036 
	C106.253296,169.716461 102.508080,169.431091 98.381577,169.071320 
z"/>
<path fill="#D60EA9" opacity="1.000000" stroke="none" 
	d="
M125.993835,74.764587 
	C115.565331,74.005127 105.687454,75.756058 96.320816,81.311478 
	C91.300987,81.276649 86.581581,81.137672 81.430824,80.997849 
	C83.137794,79.705612 85.224205,78.316170 87.428444,77.149307 
	C89.822327,75.882072 92.325813,74.821892 95.300087,73.329399 
	C107.202881,69.992371 118.587097,66.997375 129.971313,64.002380 
	C131.690826,64.004059 133.410339,64.005737 135.491302,64.341049 
	C134.566864,66.782463 133.280991,68.890228 131.635651,71.016319 
	C129.515396,72.277954 127.754616,73.521271 125.993835,74.764587 
z"/>
<path fill="#FB3F40" opacity="1.000000" stroke="none" 
	d="
M147.069336,157.348999 
	C148.197372,155.971542 149.397552,154.931778 150.854218,153.749680 
	C155.338043,157.076157 160.809128,159.568604 161.000214,166.601013 
	C156.380493,163.893127 151.760971,160.789902 147.069336,157.348999 
z"/>
<path fill="#F11491" opacity="1.000000" stroke="none" 
	d="
M157.054291,91.975006 
	C154.270050,89.757545 151.689545,87.225769 149.286438,84.236206 
	C152.648697,82.504410 155.833557,81.230400 159.345322,80.122772 
	C163.152740,84.062286 167.522720,83.726730 171.987106,82.955086 
	C171.988495,83.407906 171.989883,83.860733 171.992218,84.653015 
	C170.274734,85.997887 168.633743,87.181580 166.820679,87.969116 
	C163.689438,89.329269 160.451309,90.443367 157.054291,91.975006 
z"/>
<path fill="#D108B2" opacity="1.000000" stroke="none" 
	d="
M130.040771,63.663734 
	C118.587097,66.997375 107.202881,69.992371 95.409943,72.994751 
	C90.960350,73.334404 86.919479,73.666664 82.438698,73.998322 
	C83.605362,73.022247 85.272598,72.132172 86.800850,71.046455 
	C88.225800,70.034134 89.502960,68.813789 91.301155,67.270264 
	C96.837280,65.236038 101.917427,63.616570 106.997574,61.997101 
	C113.422638,60.380199 119.847710,58.763294 126.638275,57.077152 
	C128.668777,57.518078 130.333786,58.028240 132.306244,58.632607 
	C131.539993,60.269966 130.825119,61.797527 130.040771,63.663734 
z"/>
<path fill="#E608AA" opacity="1.000000" stroke="none" 
	d="
M131.995117,70.998001 
	C133.280991,68.890228 134.566864,66.782463 135.920959,64.340393 
	C140.417206,62.715744 144.845276,61.425385 149.640015,60.064171 
	C152.411255,59.712143 154.815811,59.430965 157.611084,59.074341 
	C158.892517,60.487450 159.783188,61.976002 160.700317,64.015579 
	C159.861496,65.394600 158.996231,66.222588 157.697418,67.041306 
	C148.840942,68.354012 140.418030,69.676010 131.995117,70.998001 
z"/>
<path fill="#C906BB" opacity="1.000000" stroke="none" 
	d="
M107.017227,61.631752 
	C101.917427,63.616570 96.837280,65.236038 91.378571,66.928825 
	C84.925804,68.283806 78.851608,69.565475 72.388535,70.921822 
	C77.941826,67.739716 83.869141,64.455315 89.836937,61.246189 
	C91.274612,60.473087 92.846390,59.949390 94.675888,59.156685 
	C99.059547,58.352962 103.123802,57.703552 107.593880,57.026993 
	C107.678749,58.422035 107.357811,59.844219 107.017227,61.631752 
z"/>
<path fill="#FB5A38" opacity="1.000000" stroke="none" 
	d="
M89.738960,154.162827 
	C91.616203,155.084869 93.200409,156.232803 94.955162,157.661285 
	C88.062874,158.628983 81.000053,159.316116 73.469711,160.004990 
	C72.749557,159.505630 72.496925,159.004532 72.122849,158.250595 
	C75.220177,157.056763 78.400642,155.938553 81.670067,155.231903 
	C84.204369,154.684113 86.849861,154.650742 89.738960,154.162827 
z"/>
<path fill="#FFFCFD" opacity="1.000000" stroke="none" 
	d="
M158.130966,67.050583 
	C158.996231,66.222588 159.861496,65.394600 160.868271,64.299881 
	C167.925781,61.031765 171.033630,61.599583 176.607269,67.009781 
	C177.318130,69.196655 177.732254,71.202415 178.195343,73.599083 
	C176.303482,76.807480 174.362686,79.624969 172.204498,82.698776 
	C167.522720,83.726730 163.152740,84.062286 159.221100,79.781281 
	C158.052444,77.181175 157.334946,75.088936 156.715225,72.621368 
	C157.252335,70.514229 157.691650,68.782402 158.130966,67.050583 
z"/>
<path fill="#FB5A38" opacity="1.000000" stroke="none" 
	d="
M126.127823,165.453156 
	C128.745636,164.472366 131.490662,163.804718 134.620209,163.132385 
	C136.684784,164.762390 138.405136,166.358093 140.033630,168.042603 
	C141.689651,169.755615 143.255127,171.556137 144.931183,173.653992 
	C144.556534,173.992203 144.110977,173.994781 143.331177,173.998337 
	C137.416306,171.254974 131.835678,168.510620 126.127823,165.453156 
z"/>
<path fill="#F63657" opacity="1.000000" stroke="none" 
	d="
M76.652122,132.025879 
	C77.516518,134.385147 78.380913,136.744415 79.331970,139.471100 
	C77.868774,139.610840 76.318909,139.383148 74.382248,139.087158 
	C69.308769,139.011368 64.622093,139.003876 59.469788,138.997269 
	C61.292637,136.883865 63.581116,134.769577 66.398743,132.315826 
	C70.169304,131.992874 73.410713,132.009369 76.652122,132.025879 
z"/>
<path fill="#F42863" opacity="1.000000" stroke="none" 
	d="
M74.490707,119.998917 
	C75.147728,122.014259 75.348663,124.029755 75.143738,126.449905 
	C71.172379,126.915428 67.606888,126.976311 64.041397,127.037193 
	C61.822964,125.543877 59.604527,124.050560 57.199875,122.273209 
	C62.687317,121.325813 68.360977,120.662445 74.490707,119.998917 
z"/>
<path fill="#F73D67" opacity="1.000000" stroke="none" 
	d="
M63.753693,127.259987 
	C67.606888,126.976311 71.172379,126.915428 75.142792,126.884491 
	C75.908630,128.397400 76.269554,129.880356 76.641296,131.694595 
	C73.410713,132.009369 70.169304,131.992874 66.480560,131.978119 
	C62.024738,131.975113 58.016262,131.970367 53.556747,131.968872 
	C56.559139,130.475693 60.012566,128.979233 63.753693,127.259987 
z"/>
<path fill="#EE1C7C" opacity="1.000000" stroke="none" 
	d="
M94.115425,108.001534 
	C95.779259,105.390266 97.443100,102.779007 99.778847,100.176994 
	C102.067085,100.415871 103.706734,100.945976 105.295662,100.822639 
	C111.865677,100.312607 118.443764,99.779793 124.972153,98.906174 
	C129.109909,98.352470 133.165253,97.183083 137.257553,96.289818 
	C140.215073,99.599236 143.172592,102.908646 145.768188,106.582886 
	C140.603958,107.631104 135.801682,108.314491 130.685364,108.774879 
	C126.485458,108.034752 122.597801,107.076218 118.714081,107.091942 
	C110.513435,107.125122 102.314850,107.667847 94.115425,108.001534 
z"/>
<path fill="#F33062" opacity="1.000000" stroke="none" 
	d="
M93.039589,128.998627 
	C92.577980,127.262657 92.116379,125.526672 92.152481,123.397301 
	C104.119858,123.671570 115.607452,124.125526 127.052605,125.085457 
	C134.138000,125.679726 141.158905,127.042938 148.208771,128.060974 
	C147.356079,130.251968 146.503372,132.442947 144.958206,134.816498 
	C140.923859,134.039551 137.632812,132.532349 134.231186,132.216660 
	C120.519218,130.944031 106.773094,130.039261 93.039589,128.998627 
z"/>
<path fill="#F0286C" opacity="1.000000" stroke="none" 
	d="
M91.396576,121.058914 
	C91.537056,118.987976 91.677536,116.917030 92.398109,114.423309 
	C99.318993,113.999130 105.659790,113.997742 112.430481,113.997559 
	C124.893135,114.333672 136.925903,114.668579 148.958679,115.003479 
	C149.202744,117.162773 149.446808,119.322052 149.096954,121.708443 
	C141.312057,120.994331 134.120636,119.282089 126.930214,119.286156 
	C115.085335,119.292862 103.241089,120.409912 91.396576,121.058914 
z"/>
<path fill="#F63657" opacity="1.000000" stroke="none" 
	d="
M93.033104,129.347763 
	C106.773094,130.039261 120.519218,130.944031 134.231186,132.216660 
	C137.632812,132.532349 140.923859,134.039551 144.671661,135.010986 
	C143.683243,136.703964 142.288895,138.385025 140.173096,139.994629 
	C131.417816,138.286636 123.444321,136.147766 115.330971,135.173462 
	C108.913300,134.402771 102.323891,135.062103 95.810753,135.086380 
	C94.882713,133.289886 93.954666,131.493393 93.033104,129.347763 
z"/>
<path fill="#F73E50" opacity="1.000000" stroke="none" 
	d="
M95.918991,135.402679 
	C102.323891,135.062103 108.913300,134.402771 115.330971,135.173462 
	C123.444321,136.147766 131.417816,138.286636 139.834106,140.003845 
	C137.765762,142.134140 135.314926,144.183777 132.326874,146.007980 
	C121.978035,140.878189 111.510574,140.279480 100.831955,141.067001 
	C99.230377,139.284317 97.628799,137.501648 95.918991,135.402679 
z"/>
<path fill="#F42863" opacity="1.000000" stroke="none" 
	d="
M91.341721,121.398216 
	C103.241089,120.409912 115.085335,119.292862 126.930214,119.286156 
	C134.120636,119.282089 141.312057,120.994331 148.906036,122.020615 
	C149.102386,123.891785 148.895737,125.677895 148.448929,127.762482 
	C141.158905,127.042938 134.138000,125.679726 127.052605,125.085457 
	C115.607452,124.125526 104.119858,123.671570 92.200890,123.005699 
	C91.596680,122.584160 91.441772,122.160835 91.341721,121.398216 
z"/>
<path fill="#E91B89" opacity="1.000000" stroke="none" 
	d="
M137.027405,96.061874 
	C133.165253,97.183083 129.109909,98.352470 124.972153,98.906174 
	C118.443764,99.779793 111.865677,100.312607 105.295662,100.822639 
	C103.706734,100.945976 102.067085,100.415871 100.066849,100.019943 
	C109.307266,89.392456 123.749985,87.828217 137.027405,96.061874 
z"/>
<path fill="#ED2276" opacity="1.000000" stroke="none" 
	d="
M112.000587,113.996346 
	C105.659790,113.997742 99.318993,113.999130 92.548752,114.000793 
	C92.642120,112.191772 93.164932,110.382469 93.901581,108.287354 
	C102.314850,107.667847 110.513435,107.125122 118.714081,107.091942 
	C122.597801,107.076218 126.485458,108.034752 130.358093,108.999237 
	C128.907669,109.639862 127.430550,109.683289 126.040573,110.053711 
	C121.343910,111.305367 116.678154,112.673035 112.000587,113.996346 
z"/>
<path fill="#F12071" opacity="1.000000" stroke="none" 
	d="
M112.430481,113.997559 
	C116.678154,112.673035 121.343910,111.305367 126.040573,110.053711 
	C127.430550,109.683289 128.907669,109.639862 130.672119,109.222229 
	C135.801682,108.314491 140.603958,107.631104 145.854279,106.926483 
	C147.212784,109.355179 148.123260,111.805115 148.996216,114.629272 
	C136.925903,114.668579 124.893135,114.333672 112.430481,113.997559 
z"/>
<path fill="#E60CA3" opacity="1.000000" stroke="none" 
	d="
M157.697418,67.041306 
	C157.691650,68.782402 157.252335,70.514229 156.328659,72.632217 
	C150.175827,74.703751 144.507355,76.389114 138.838882,78.074478 
	C134.818649,77.043472 130.798416,76.012459 126.386009,74.873016 
	C127.754616,73.521271 129.515396,72.277954 131.635651,71.016327 
	C140.418030,69.676010 148.840942,68.354012 157.697418,67.041306 
z"/>
<path fill="#F84A4E" opacity="1.000000" stroke="none" 
	d="
M100.979675,141.377518 
	C111.510574,140.279480 121.978035,140.878189 131.986633,146.119965 
	C120.823250,151.433121 110.533707,149.436157 100.979675,141.377518 
z"/>
<path fill="#EC0E9A" opacity="1.000000" stroke="none" 
	d="
M139.060150,78.343658 
	C144.507355,76.389114 150.175827,74.703751 156.230865,73.007538 
	C157.334946,75.088936 158.052444,77.181175 158.894196,79.614914 
	C155.833557,81.230400 152.648697,82.504410 149.119720,83.942635 
	C145.610870,82.275513 142.446152,80.444176 139.060150,78.343658 
z"/>
</svg>